<svg xmlns="http://www.w3.org/2000/svg" xmlns:xlink="http://www.w3.org/1999/xlink" width="189" zoomAndPan="magnify" viewBox="0 0 141.75 141.750002" height="189" preserveAspectRatio="xMidYMid meet" version="1.0"><defs><clipPath id="id1"><path d="M 0 19.3125 L 141.5 19.3125 L 141.5 122.0625 L 0 122.0625 Z M 0 19.3125 " clip-rule="nonzero"/></clipPath><clipPath id="id2"><path d="M 21 37 L 53.347656 37 L 53.347656 70.925781 L 21 70.925781 Z M 21 37 " clip-rule="nonzero"/></clipPath><clipPath id="id3"><path d="M 15.847656 65 L 22 65 L 22 70.925781 L 15.847656 70.925781 Z M 15.847656 65 " clip-rule="nonzero"/></clipPath><clipPath id="id4"><path d="M 47 26.675781 L 53.347656 26.675781 L 53.347656 34 L 47 34 Z M 47 26.675781 " clip-rule="nonzero"/></clipPath><clipPath id="id5"><path d="M 108.640625 42 L 126 42 L 126 62.1875 L 108.640625 62.1875 Z M 108.640625 42 " clip-rule="nonzero"/></clipPath><clipPath id="id6"><path d="M 108.640625 44 L 114 44 L 114 50 L 108.640625 50 Z M 108.640625 44 " clip-rule="nonzero"/></clipPath><clipPath id="id7"><path d="M 103.492188 72.777344 L 124 72.777344 L 124 96 L 103.492188 96 Z M 103.492188 72.777344 " clip-rule="nonzero"/></clipPath><clipPath id="id8"><path d="M 121.179688 79 L 128.191406 79 L 128.191406 86 L 121.179688 86 Z M 121.179688 79 " clip-rule="nonzero"/></clipPath><clipPath id="id9"><path d="M 26 83.46875 L 41.480469 83.46875 L 41.480469 97 L 26 97 Z M 26 83.46875 " clip-rule="nonzero"/></clipPath><clipPath id="id10"><path d="M 24.230469 86 L 32 86 L 32 95 L 24.230469 95 Z M 24.230469 86 " clip-rule="nonzero"/></clipPath><clipPath id="id11"><path d="M 35.195312 97.621094 L 38.324219 97.621094 L 38.324219 100.527344 L 35.195312 100.527344 Z M 35.195312 97.621094 " clip-rule="nonzero"/></clipPath><clipPath id="id12"><path d="M 17 61 L 125 61 L 125 85.4375 L 17 85.4375 Z M 17 61 " clip-rule="nonzero"/></clipPath></defs><g clip-path="url(#id1)"><path fill="rgb(35.289001%, 20.779419%, 52.938843%)" d="M 6.152344 87.003906 C 6.152344 86.710938 6.203125 86.464844 6.203125 86.167969 C 6.253906 85.429688 6.253906 85.476562 7.09375 85.132812 C 7.292969 85.082031 7.339844 84.738281 7.488281 84.589844 C 8.28125 83.703125 9.074219 82.816406 10.113281 81.632812 L 9.371094 79.167969 L 3.730469 77.6875 L 5.855469 76.308594 C 5.164062 75.417969 4.371094 74.777344 5.660156 73.742188 C 6.203125 73.300781 6.402344 71.96875 5.855469 70.6875 L 4.570312 73.988281 L 0.808594 71.917969 L 2.046875 71.375 L 2.640625 72.117188 L 3.433594 71.179688 L 4.175781 71.769531 C 3.828125 70.488281 3.183594 70.488281 2.097656 71.425781 C 1.898438 71.179688 1.699219 70.933594 1.601562 70.6875 C 1.253906 70.191406 1.007812 69.699219 0.808594 69.15625 C 0.710938 68.566406 0.660156 68.023438 0.710938 67.433594 L 1.007812 67.433594 L 1.75 68.515625 L 2.394531 67.234375 L 0.5625 66.398438 L 1.355469 66.101562 C 0.316406 65.359375 0.117188 63.929688 0.859375 62.945312 C 1.007812 62.75 1.15625 62.601562 1.304688 62.5 C 1.699219 62.207031 1.996094 61.761719 2.34375 61.417969 C 2.691406 61.070312 2.988281 60.53125 3.730469 61.023438 C 3.878906 61.121094 4.570312 60.875 4.71875 60.578125 C 5.363281 59.445312 6.449219 59.199219 7.539062 59.097656 C 8.28125 59.148438 8.925781 58.65625 9.074219 57.917969 C 9.371094 56.832031 9.714844 55.746094 10.011719 54.664062 C 11.25 49.929688 14.070312 46.082031 17.386719 42.535156 C 19.5625 40.167969 21.988281 38.046875 24.3125 35.828125 C 22.878906 34.101562 23.523438 32.328125 25.945312 31.882812 C 25.898438 31.636719 25.898438 31.339844 25.898438 31.390625 C 26.738281 31.191406 27.429688 31.046875 28.074219 30.847656 C 30.101562 30.257812 32.082031 29.417969 34.160156 29.074219 C 37.625 28.53125 40.988281 27.25 43.90625 25.324219 C 46.777344 23.453125 50.042969 22.761719 53.210938 21.726562 C 56.773438 20.542969 60.535156 20.347656 64.195312 20.050781 C 68.203125 19.65625 72.160156 19.410156 76.070312 19.359375 C 79.039062 19.3125 82.058594 19.707031 85.074219 19.902344 C 86.855469 20 88.640625 20.199219 90.421875 20.347656 C 90.617188 20.347656 90.867188 20.148438 91.0625 20.148438 C 91.707031 20.101562 92.398438 20.101562 93.042969 20.148438 C 93.882812 20.246094 94.675781 20.542969 95.515625 20.742188 C 95.714844 20.789062 96.011719 20.839844 96.0625 20.742188 C 96.851562 19.605469 97.445312 20.445312 98.089844 20.9375 C 98.386719 21.183594 98.929688 21.035156 99.277344 21.234375 C 99.921875 21.480469 100.515625 21.875 101.007812 22.417969 C 101.601562 23.207031 102.34375 23.796875 103.234375 24.191406 C 106.996094 25.96875 110.609375 27.988281 114.320312 29.960938 C 115.257812 30.453125 116 31.046875 117.238281 30.75 C 118.375 30.601562 119.5625 30.652344 120.652344 30.945312 C 121.496094 31.09375 121.941406 30.847656 122.1875 30.058594 C 122.582031 30.503906 123.078125 30.898438 123.621094 31.191406 C 123.871094 31.292969 124.363281 30.898438 124.710938 30.699219 C 124.957031 30.996094 125.207031 31.539062 125.402344 31.539062 C 127.183594 31.539062 128.175781 32.722656 128.867188 33.707031 C 128.769531 34.25 128.769531 34.84375 128.816406 35.382812 C 129.015625 36.273438 129.3125 37.109375 129.609375 37.949219 C 129.609375 38.046875 129.660156 38.097656 129.660156 38.195312 C 129.015625 39.476562 130.152344 40.5625 130.054688 41.746094 C 129.90625 42.238281 129.707031 42.679688 129.460938 43.125 C 129.558594 43.421875 129.957031 43.914062 129.957031 44.40625 C 129.90625 45.589844 130.597656 45.640625 131.09375 45.640625 C 132.230469 47.90625 133.074219 50.226562 134.507812 52.148438 C 135.449219 53.429688 135.894531 54.859375 136.636719 56.140625 C 137.921875 58.410156 139.058594 60.777344 140.050781 63.191406 C 140.742188 64.769531 140.988281 66.542969 141.386719 68.222656 C 141.484375 68.566406 141.535156 68.960938 141.632812 69.402344 C 141.039062 69.699219 140.792969 70.046875 141.136719 70.933594 C 141.484375 71.96875 141.535156 73.101562 141.335938 74.1875 C 141.039062 76.109375 140.445312 77.984375 140 79.90625 C 139.949219 80.25 139.902344 80.597656 139.902344 80.941406 C 139.949219 81.238281 139.902344 81.582031 139.800781 81.878906 C 138.761719 83.851562 137.625 85.773438 136.585938 87.695312 C 136.339844 88.1875 136.089844 88.632812 135.792969 89.125 C 134.507812 90.753906 133.222656 92.378906 131.933594 94.007812 C 131.042969 95.140625 130.054688 96.273438 129.066406 97.308594 C 127.925781 98.394531 126.789062 99.382812 125.550781 100.316406 C 122.878906 102.386719 120.355469 104.65625 117.484375 106.480469 C 114.417969 108.355469 111.25 110.03125 107.9375 111.410156 C 103.285156 113.382812 98.535156 115.207031 93.734375 116.734375 C 91.707031 117.378906 89.777344 118.3125 87.550781 118.460938 C 85.519531 118.609375 83.589844 119.546875 81.613281 120.089844 C 81.214844 120.1875 80.769531 120.679688 80.472656 119.941406 C 80.425781 119.84375 80.128906 119.84375 79.929688 119.890625 C 77.851562 120.335938 75.722656 120.730469 73.644531 121.222656 C 73.199219 121.320312 72.804688 121.765625 72.410156 122.0625 C 72.160156 121.222656 71.566406 120.976562 70.628906 120.976562 C 67.363281 121.074219 64.097656 121.222656 60.832031 120.976562 C 57.316406 120.632812 53.804688 120.089844 50.339844 119.398438 C 48.609375 119.101562 46.976562 118.460938 45.292969 117.96875 C 44.945312 117.820312 44.601562 117.773438 44.253906 117.820312 C 42.917969 118.265625 42.125 117.378906 41.136719 116.6875 C 39.949219 115.847656 38.5625 115.257812 37.277344 114.46875 C 35.199219 113.1875 33.023438 111.953125 31.042969 110.523438 C 29.757812 109.585938 28.421875 109.980469 27.183594 110.03125 C 25.648438 110.082031 24.214844 110.128906 22.878906 109.191406 C 22.679688 109.042969 22.632812 108.648438 22.484375 108.402344 C 22.285156 108.058594 22.085938 107.714844 21.886719 107.367188 L 23.175781 105.148438 L 22.929688 104.953125 L 21.441406 105.644531 C 21.492188 104.753906 21.738281 103.964844 21.492188 103.472656 C 20.996094 102.488281 21.144531 100.957031 19.511719 100.761719 C 19.363281 100.761719 19.316406 100.171875 19.214844 99.875 C 18.175781 100.316406 17.1875 100.8125 16.148438 101.15625 C 15.652344 101.207031 15.109375 101.207031 14.613281 101.058594 C 14.269531 101.058594 13.921875 101.007812 13.574219 100.910156 C 12.636719 100.5625 11.695312 100.171875 10.753906 99.777344 C 10.65625 99.726562 10.605469 99.578125 10.605469 99.480469 C 11.152344 97.902344 9.816406 97.113281 9.519531 96.027344 C 9.566406 95.289062 9.816406 94.449219 9.566406 93.859375 C 9.171875 93.019531 8.28125 92.625 7.390625 92.871094 L 8.527344 92.183594 L 7.886719 91.046875 C 8.035156 90.800781 8.183594 90.605469 8.28125 90.359375 C 8.675781 89.273438 8.183594 87.546875 7.242188 86.90625 C 6.945312 86.808594 6.5 86.957031 6.152344 87.003906 Z M 65.183594 117.722656 C 65.234375 117.476562 65.285156 117.230469 65.285156 116.933594 C 65.234375 116.6875 64.988281 116.488281 64.886719 116.242188 C 64.640625 115.503906 62.808594 114.371094 62.414062 114.863281 C 61.472656 115.949219 60.535156 115.652344 59.445312 115.40625 C 59.246094 115.40625 59.050781 115.40625 58.851562 115.503906 C 57.417969 115.898438 55.980469 116.292969 54.597656 116.734375 C 54.941406 117.671875 61.96875 118.511719 65.183594 117.722656 Z M 109.421875 31.242188 L 109.570312 30.601562 C 107.6875 29.8125 105.859375 28.976562 103.929688 28.234375 C 103.53125 28.085938 102.988281 28.234375 102.246094 28.234375 C 102.742188 28.726562 103.085938 28.976562 103.039062 29.121094 C 102.542969 30.800781 103.78125 30.75 104.769531 30.847656 C 105.660156 30.996094 106.550781 31.046875 107.390625 31.09375 C 108.132812 31.144531 108.777344 31.191406 109.421875 31.242188 Z M 18.425781 45.886719 L 18.722656 46.28125 C 19.167969 46.035156 19.613281 45.789062 20.058594 45.539062 C 21.148438 44.898438 22.1875 44.160156 23.273438 43.570312 C 24.808594 42.78125 25.203125 41.84375 24.5625 40.019531 Z M 39.703125 112.347656 L 40.046875 112.152344 C 40 111.855469 40 111.363281 39.898438 111.363281 C 39.007812 111.164062 38.910156 110.425781 38.8125 109.832031 L 35.546875 109.539062 L 35.347656 109.882812 Z M 14.121094 55.351562 L 13.773438 55.203125 L 12.734375 57.324219 C 14.121094 57.667969 14.269531 57.421875 14.121094 55.351562 Z M 26.984375 39.773438 L 26.738281 39.625 C 26.492188 40.019531 26.242188 40.414062 26.09375 40.855469 C 26.046875 40.957031 26.589844 41.203125 26.984375 41.496094 Z M 6.152344 87.003906 C 5.90625 87.105469 5.558594 87.105469 5.460938 87.300781 C 5.3125 87.648438 5.164062 87.992188 5.113281 88.335938 L 5.90625 90.359375 L 6.945312 90.160156 L 5.757812 89.078125 L 6.597656 88.4375 C 6.351562 88.1875 6.152344 87.894531 5.957031 87.597656 C 5.90625 87.449219 6.054688 87.203125 6.152344 87.003906 C 6.152344 86.957031 6.152344 87.003906 6.152344 87.003906 Z M 6.152344 87.003906 " fill-opacity="1" fill-rule="nonzero"/></g><g clip-path="url(#id2)"><path fill="rgb(93.728638%, 58.039856%, 79.219055%)" d="M 104.132812 78.59375 C 68.636719 81.875 65.984375 84.535156 62.71875 120.183594 C 59.449219 84.535156 56.800781 81.875 21.300781 78.59375 C 56.800781 75.3125 59.449219 72.652344 62.71875 37.003906 C 65.984375 72.652344 68.636719 75.3125 104.132812 78.59375 " fill-opacity="1" fill-rule="nonzero"/></g><path fill="rgb(93.728638%, 58.039856%, 79.219055%)" d="M 43.832031 50.546875 C 35.761719 51.292969 35.160156 51.898438 34.414062 60.003906 C 33.671875 51.898438 33.070312 51.292969 25 50.546875 C 33.070312 49.800781 33.671875 49.195312 34.414062 41.089844 C 35.160156 49.195312 35.761719 49.800781 43.832031 50.546875 " fill-opacity="1" fill-rule="nonzero"/><g clip-path="url(#id3)"><path fill="rgb(93.728638%, 58.039856%, 79.219055%)" d="M 21.300781 68.425781 C 18.546875 68.683594 18.339844 68.886719 18.085938 71.65625 C 17.832031 68.886719 17.625 68.683594 14.871094 68.425781 C 17.625 68.171875 17.832031 67.964844 18.085938 65.195312 C 18.339844 67.964844 18.546875 68.171875 21.300781 68.425781 " fill-opacity="1" fill-rule="nonzero"/></g><g clip-path="url(#id4)"><path fill="rgb(93.728638%, 58.039856%, 79.219055%)" d="M 53.945312 29.910156 C 51.1875 30.164062 50.980469 30.371094 50.726562 33.140625 C 50.472656 30.371094 50.269531 30.164062 47.511719 29.910156 C 50.269531 29.65625 50.472656 29.449219 50.726562 26.679688 C 50.980469 29.449219 51.1875 29.65625 53.945312 29.910156 " fill-opacity="1" fill-rule="nonzero"/></g><g clip-path="url(#id5)"><path fill="rgb(93.728638%, 58.039856%, 79.219055%)" d="M 125.566406 67.621094 C 103.828125 69.625 102.203125 71.25 100.203125 93.007812 C 98.203125 71.25 96.582031 69.625 74.839844 67.621094 C 96.582031 65.621094 98.203125 63.996094 100.203125 42.238281 C 102.203125 63.996094 103.828125 65.621094 125.566406 67.621094 " fill-opacity="1" fill-rule="nonzero"/></g><path fill="rgb(93.728638%, 58.039856%, 79.219055%)" d="M 123.550781 42.761719 C 121.863281 42.917969 121.738281 43.042969 121.582031 44.734375 C 121.425781 43.042969 121.300781 42.917969 119.609375 42.761719 C 121.300781 42.605469 121.425781 42.480469 121.582031 40.789062 C 121.738281 42.480469 121.863281 42.605469 123.550781 42.761719 " fill-opacity="1" fill-rule="nonzero"/><g clip-path="url(#id6)"><path fill="rgb(93.728638%, 58.039856%, 79.219055%)" d="M 113.519531 46.925781 C 111.296875 47.132812 111.132812 47.296875 110.925781 49.523438 C 110.722656 47.296875 110.554688 47.132812 108.332031 46.925781 C 110.554688 46.722656 110.722656 46.554688 110.925781 44.332031 C 111.132812 46.554688 111.296875 46.722656 113.519531 46.925781 " fill-opacity="1" fill-rule="nonzero"/></g><path fill="rgb(93.728638%, 58.039856%, 79.219055%)" d="M 124.902344 56.816406 C 121.785156 57.105469 121.550781 57.335938 121.265625 60.457031 C 120.976562 57.335938 120.746094 57.105469 117.625 56.816406 C 120.746094 56.53125 120.976562 56.296875 121.265625 53.175781 C 121.550781 56.296875 121.785156 56.53125 124.902344 56.816406 " fill-opacity="1" fill-rule="nonzero"/><g clip-path="url(#id7)"><path fill="rgb(93.728638%, 58.039856%, 79.219055%)" d="M 123.375 69.066406 C 100.535156 71.164062 98.832031 72.867188 96.730469 95.675781 C 94.625 72.867188 92.921875 71.164062 70.082031 69.066406 C 92.921875 66.96875 94.625 65.265625 96.730469 42.457031 C 98.832031 65.265625 100.535156 66.96875 123.375 69.066406 " fill-opacity="1" fill-rule="nonzero"/></g><g clip-path="url(#id8)"><path fill="rgb(93.728638%, 58.039856%, 79.219055%)" d="M 128.195312 82.492188 C 125.222656 82.765625 125 82.984375 124.726562 85.953125 C 124.453125 82.984375 124.230469 82.765625 121.257812 82.492188 C 124.230469 82.21875 124.453125 81.996094 124.726562 79.027344 C 125 81.996094 125.222656 82.21875 128.195312 82.492188 " fill-opacity="1" fill-rule="nonzero"/></g><path fill="rgb(93.728638%, 58.039856%, 79.219055%)" d="M 112.132812 80.425781 C 110.359375 80.585938 110.226562 80.71875 110.0625 82.492188 C 109.902344 80.71875 109.769531 80.585938 107.996094 80.425781 C 109.769531 80.261719 109.902344 80.128906 110.0625 78.359375 C 110.226562 80.128906 110.359375 80.261719 112.132812 80.425781 " fill-opacity="1" fill-rule="nonzero"/><path fill="rgb(93.728638%, 58.039856%, 79.219055%)" d="M 118.359375 94.960938 C 115.160156 95.253906 114.921875 95.492188 114.625 98.6875 C 114.332031 95.492188 114.09375 95.253906 110.894531 94.960938 C 114.09375 94.667969 114.332031 94.429688 114.625 91.234375 C 114.921875 94.429688 115.160156 94.667969 118.359375 94.960938 " fill-opacity="1" fill-rule="nonzero"/><g clip-path="url(#id9)"><path fill="rgb(93.728638%, 58.039856%, 79.219055%)" d="M 64.617188 78.0625 C 48.378906 79.535156 47.167969 80.726562 45.671875 96.714844 C 44.179688 80.726562 42.96875 79.535156 26.730469 78.0625 C 42.96875 76.589844 44.179688 75.398438 45.671875 59.410156 C 47.167969 75.398438 48.378906 76.589844 64.617188 78.0625 " fill-opacity="1" fill-rule="nonzero"/></g><g clip-path="url(#id10)"><path fill="rgb(93.728638%, 58.039856%, 79.219055%)" d="M 31.789062 90.25 C 28.507812 90.546875 28.261719 90.789062 27.960938 94.015625 C 27.660156 90.789062 27.414062 90.546875 24.132812 90.25 C 27.414062 89.953125 27.660156 89.710938 27.960938 86.480469 C 28.261719 89.710938 28.507812 89.953125 31.789062 90.25 " fill-opacity="1" fill-rule="nonzero"/></g><g clip-path="url(#id11)"><path fill="rgb(93.728638%, 58.039856%, 79.219055%)" d="M 38.230469 99.078125 C 36.96875 99.191406 36.875 99.285156 36.757812 100.527344 C 36.640625 99.285156 36.546875 99.191406 35.285156 99.078125 C 36.546875 98.964844 36.640625 98.871094 36.757812 97.628906 C 36.875 98.871094 36.96875 98.964844 38.230469 99.078125 " fill-opacity="1" fill-rule="nonzero"/></g><path fill="rgb(93.728638%, 58.039856%, 79.219055%)" d="M 37.691406 86.027344 C 36.429688 86.140625 36.335938 86.234375 36.21875 87.476562 C 36.101562 86.234375 36.007812 86.140625 34.75 86.027344 C 36.007812 85.910156 36.101562 85.820312 36.21875 84.578125 C 36.335938 85.820312 36.429688 85.910156 37.691406 86.027344 " fill-opacity="1" fill-rule="nonzero"/><g clip-path="url(#id12)"><path fill="rgb(100%, 100%, 100%)" d="M 50.519531 85.488281 L 50.519531 62.171875 L 51.792969 62.171875 L 51.792969 65.839844 C 51.945312 65.675781 52.082031 65.503906 52.210938 65.320312 C 53.273438 63.128906 55.519531 61.746094 57.972656 61.773438 C 60.878906 61.6875 63.242188 62.753906 64.628906 65.320312 C 65.070312 66.117188 65.410156 66.957031 65.652344 67.835938 C 65.890625 68.710938 66.023438 69.605469 66.046875 70.515625 C 66.070312 71.425781 65.984375 72.324219 65.792969 73.214844 C 65.601562 74.101562 65.304688 74.957031 64.90625 75.777344 C 63.613281 78.652344 60.417969 80.082031 57 79.554688 C 55.917969 79.464844 54.925781 79.121094 54.019531 78.53125 C 53.113281 77.9375 52.40625 77.164062 51.894531 76.214844 L 51.894531 85.488281 Z M 51.792969 70.417969 L 52.078125 73.15625 C 52.582031 76.273438 54.441406 78.117188 57.355469 78.460938 C 58.039062 78.574219 58.722656 78.566406 59.40625 78.445312 C 60.089844 78.320312 60.730469 78.085938 61.332031 77.742188 C 61.933594 77.398438 62.457031 76.960938 62.90625 76.4375 C 63.351562 75.910156 63.699219 75.328125 63.941406 74.683594 C 65.078125 72 64.992188 68.964844 63.71875 66.347656 C 63.457031 65.769531 63.113281 65.246094 62.679688 64.78125 C 62.25 64.3125 61.753906 63.929688 61.195312 63.621094 C 60.636719 63.316406 60.046875 63.105469 59.417969 62.992188 C 58.792969 62.875 58.160156 62.863281 57.53125 62.953125 C 56.9375 62.996094 56.367188 63.125 55.8125 63.347656 C 55.261719 63.566406 54.757812 63.863281 54.300781 64.238281 C 53.839844 64.617188 53.453125 65.050781 53.132812 65.546875 C 52.808594 66.042969 52.574219 66.578125 52.417969 67.144531 C 52.148438 68.226562 51.9375 69.316406 51.792969 70.417969 Z M 92.078125 73.589844 C 92.027344 73.996094 91.945312 74.394531 91.824219 74.789062 C 91.703125 75.179688 91.546875 75.558594 91.359375 75.921875 C 91.167969 76.285156 90.949219 76.632812 90.695312 76.957031 C 90.445312 77.28125 90.164062 77.582031 89.859375 77.855469 C 89.554688 78.132812 89.222656 78.375 88.875 78.59375 C 88.523438 78.808594 88.15625 78.992188 87.769531 79.140625 C 87.386719 79.292969 86.992188 79.40625 86.585938 79.488281 C 86.179688 79.566406 85.773438 79.609375 85.359375 79.617188 C 80.011719 79.882812 77.503906 76.363281 77.105469 72.296875 C 76.820312 70.042969 77.167969 67.890625 78.144531 65.835938 C 78.480469 65.148438 78.910156 64.527344 79.445312 63.972656 C 79.976562 63.421875 80.582031 62.960938 81.261719 62.601562 C 81.941406 62.238281 82.660156 61.992188 83.421875 61.859375 C 84.179688 61.722656 84.941406 61.710938 85.707031 61.816406 C 86.429688 61.878906 87.128906 62.046875 87.800781 62.328125 C 88.472656 62.605469 89.085938 62.980469 89.640625 63.453125 C 90.191406 63.921875 90.660156 64.464844 91.039062 65.082031 C 91.417969 65.699219 91.695312 66.359375 91.867188 67.0625 C 92.140625 68.34375 92.339844 69.632812 92.464844 70.9375 L 78.425781 70.9375 C 78.164062 74.621094 80.160156 77.585938 82.992188 78.300781 C 86.515625 79.160156 89.527344 77.644531 90.617188 74.320312 C 90.863281 73.46875 91.304688 73.347656 92.085938 73.589844 Z M 78.414062 69.757812 L 90.972656 69.757812 C 90.894531 65.832031 88.429688 62.976562 85.089844 62.945312 C 81.316406 62.882812 78.578125 65.625 78.414062 69.757812 Z M 94.671875 73.675781 L 95.902344 73.675781 C 95.925781 74.125 96.007812 74.5625 96.152344 74.992188 C 96.296875 75.417969 96.5 75.816406 96.753906 76.1875 C 97.007812 76.5625 97.3125 76.890625 97.660156 77.183594 C 98.007812 77.472656 98.386719 77.710938 98.800781 77.894531 C 99.855469 78.363281 100.957031 78.585938 102.109375 78.554688 C 103.265625 78.523438 104.355469 78.246094 105.378906 77.722656 C 105.945312 77.46875 106.386719 77.078125 106.707031 76.550781 C 107.023438 76.023438 107.160156 75.453125 107.117188 74.835938 C 107.132812 74.546875 107.101562 74.265625 107.023438 73.984375 C 106.945312 73.707031 106.824219 73.445312 106.664062 73.207031 C 106.5 72.964844 106.304688 72.757812 106.070312 72.582031 C 105.839844 72.40625 105.585938 72.269531 105.3125 72.175781 C 103.957031 71.675781 102.515625 71.402344 101.136719 70.960938 C 99.699219 70.554688 98.296875 70.046875 96.9375 69.4375 C 94.710938 68.363281 94.574219 64.167969 97.09375 62.839844 C 97.738281 62.480469 98.414062 62.203125 99.128906 62.011719 C 99.84375 61.820312 100.570312 61.71875 101.3125 61.707031 C 102.050781 61.695312 102.78125 61.773438 103.5 61.945312 C 104.21875 62.113281 104.90625 62.371094 105.5625 62.710938 C 107.1875 63.601562 108.085938 65.398438 107.820312 67.222656 L 106.765625 67.222656 C 106.765625 67.171875 106.667969 67.128906 106.667969 67.078125 C 106.539062 63.738281 103.707031 62.695312 100.671875 62.988281 C 99.753906 63.089844 98.882812 63.363281 98.066406 63.769531 C 97.566406 64 97.175781 64.347656 96.898438 64.824219 C 96.621094 65.296875 96.507812 65.808594 96.558594 66.355469 C 96.558594 66.898438 96.71875 67.394531 97.039062 67.839844 C 97.355469 68.289062 97.773438 68.601562 98.292969 68.78125 C 99.621094 69.265625 101.027344 69.574219 102.398438 69.953125 L 105.714844 70.8125 C 106.089844 70.9375 106.441406 71.113281 106.761719 71.339844 C 107.085938 71.566406 107.367188 71.839844 107.609375 72.152344 C 107.847656 72.464844 108.035156 72.804688 108.171875 73.175781 C 108.308594 73.542969 108.386719 73.925781 108.40625 74.320312 C 108.667969 76.085938 107.761719 77.820312 106.15625 78.625 C 103.257812 80.25 98.484375 79.820312 96.359375 77.765625 C 95.269531 76.679688 94.664062 75.203125 94.675781 73.675781 Z M 124.023438 67.226562 L 122.871094 67.226562 C 122.871094 67.070312 122.808594 66.921875 122.789062 66.804688 C 122.78125 66.375 122.699219 65.957031 122.546875 65.558594 C 122.394531 65.15625 122.175781 64.789062 121.898438 64.464844 C 121.617188 64.136719 121.289062 63.863281 120.917969 63.648438 C 120.542969 63.429688 120.144531 63.285156 119.71875 63.203125 C 118.066406 62.734375 116.445312 62.8125 114.847656 63.4375 C 114.542969 63.523438 114.257812 63.65625 113.992188 63.835938 C 113.730469 64.015625 113.5 64.230469 113.308594 64.480469 C 113.113281 64.734375 112.964844 65.011719 112.863281 65.308594 C 112.761719 65.609375 112.707031 65.917969 112.707031 66.234375 C 112.695312 66.546875 112.734375 66.851562 112.832031 67.148438 C 112.925781 67.445312 113.066406 67.714844 113.257812 67.964844 C 113.449219 68.210938 113.671875 68.421875 113.9375 68.589844 C 114.199219 68.761719 114.484375 68.882812 114.789062 68.957031 L 120.066406 70.300781 C 120.636719 70.4375 121.195312 70.605469 121.746094 70.808594 C 123.429688 71.414062 124.574219 72.964844 124.625 74.738281 C 124.636719 75.171875 124.582031 75.597656 124.464844 76.015625 C 124.347656 76.433594 124.171875 76.824219 123.9375 77.1875 C 123.699219 77.554688 123.414062 77.875 123.078125 78.15625 C 122.742188 78.433594 122.375 78.65625 121.972656 78.824219 C 120.734375 79.382812 119.433594 79.667969 118.074219 79.683594 C 116.714844 79.695312 115.410156 79.4375 114.160156 78.902344 C 113.652344 78.6875 113.1875 78.398438 112.769531 78.039062 C 112.351562 77.679688 111.996094 77.269531 111.703125 76.800781 C 111.410156 76.335938 111.195312 75.835938 111.058594 75.304688 C 110.921875 74.773438 110.867188 74.234375 110.898438 73.683594 L 112.023438 73.683594 C 112.449219 75.714844 113.855469 77.402344 115.78125 78.203125 C 117.707031 79.003906 119.90625 78.804688 121.660156 77.679688 C 122.195312 77.402344 122.613281 77.003906 122.917969 76.484375 C 123.21875 75.964844 123.355469 75.40625 123.324219 74.804688 C 123.339844 74.515625 123.304688 74.230469 123.222656 73.953125 C 123.144531 73.675781 123.019531 73.417969 122.855469 73.179688 C 122.691406 72.941406 122.492188 72.734375 122.257812 72.558594 C 122.023438 72.386719 121.769531 72.253906 121.492188 72.160156 C 120.140625 71.660156 118.699219 71.394531 117.320312 70.945312 C 115.875 70.546875 114.464844 70.042969 113.09375 69.441406 C 110.921875 68.378906 110.75 64.222656 113.222656 62.894531 C 113.875 62.519531 114.566406 62.230469 115.292969 62.03125 C 116.019531 61.835938 116.761719 61.730469 117.515625 61.722656 C 118.269531 61.714844 119.011719 61.800781 119.746094 61.984375 C 120.476562 62.167969 121.171875 62.4375 121.832031 62.800781 C 122.210938 63.023438 122.546875 63.296875 122.847656 63.617188 C 123.144531 63.9375 123.390625 64.296875 123.582031 64.6875 C 123.777344 65.078125 123.910156 65.492188 123.984375 65.921875 C 124.054688 66.351562 124.066406 66.785156 124.011719 67.21875 Z M 48.421875 79.195312 C 48.195312 79.28125 47.957031 79.324219 47.714844 79.324219 C 47.472656 79.324219 47.238281 79.28125 47.011719 79.195312 C 46.785156 79.109375 46.578125 78.984375 46.398438 78.824219 C 46.214844 78.667969 46.070312 78.480469 45.957031 78.265625 L 41.46875 72.109375 L 40.816406 71.25 L 35.609375 78.273438 C 35.503906 78.480469 35.363281 78.660156 35.191406 78.8125 C 35.019531 78.964844 34.828125 79.085938 34.613281 79.167969 C 34.394531 79.253906 34.171875 79.296875 33.941406 79.300781 C 33.710938 79.304688 33.484375 79.265625 33.265625 79.1875 L 39.976562 70.257812 L 33.734375 62.1875 C 34.660156 61.855469 35.691406 62.21875 36.207031 63.050781 L 40.859375 69.28125 L 45.535156 63.074219 C 45.640625 62.871094 45.78125 62.695312 45.953125 62.546875 C 46.125 62.398438 46.320312 62.28125 46.535156 62.203125 C 46.746094 62.125 46.96875 62.085938 47.199219 62.085938 C 47.425781 62.089844 47.648438 62.128906 47.863281 62.210938 L 45.441406 65.402344 L 42.160156 69.636719 C 42.070312 69.71875 42 69.816406 41.949219 69.925781 C 41.898438 70.039062 41.871094 70.15625 41.871094 70.277344 C 41.871094 70.402344 41.898438 70.519531 41.949219 70.628906 C 42 70.742188 42.070312 70.839844 42.160156 70.921875 L 48.410156 79.195312 Z M 76.90625 62.101562 L 76.90625 63.316406 C 76.46875 63.289062 76.03125 63.304688 75.59375 63.367188 C 75.160156 63.429688 74.734375 63.535156 74.320312 63.6875 C 73.910156 63.839844 73.515625 64.03125 73.144531 64.261719 C 72.773438 64.492188 72.429688 64.761719 72.113281 65.066406 C 71.796875 65.371094 71.515625 65.703125 71.269531 66.066406 C 71.027344 66.425781 70.820312 66.8125 70.65625 67.214844 C 70.492188 67.621094 70.371094 68.039062 70.296875 68.46875 C 70.21875 68.898438 70.191406 69.332031 70.207031 69.765625 C 70.207031 72.601562 70.207031 75.4375 70.207031 78.273438 L 70.207031 79.238281 L 68.964844 79.238281 L 68.964844 62.179688 L 70.1875 62.179688 L 70.1875 65.675781 C 71.6875 63.125 74.007812 62.179688 76.914062 62.109375 Z M 17.207031 70.144531 L 17.753906 67.46875 C 19.253906 62.171875 25.371094 59.96875 29.582031 63.25 C 32.046875 65.167969 32.664062 67.890625 32.542969 70.957031 L 18.65625 70.957031 C 18.429688 76.433594 22.414062 79.738281 27.507812 78.050781 C 29.1875 77.445312 30.449219 76.058594 30.867188 74.339844 C 31.136719 73.480469 31.578125 73.332031 32.394531 73.582031 C 32.257812 74.644531 31.890625 75.621094 31.300781 76.519531 C 30.710938 77.414062 29.953125 78.136719 29.027344 78.6875 C 28.269531 79.097656 27.472656 79.382812 26.625 79.539062 C 25.78125 79.699219 24.929688 79.722656 24.078125 79.617188 C 23.222656 79.507812 22.40625 79.269531 21.628906 78.90625 C 20.851562 78.542969 20.148438 78.066406 19.523438 77.484375 C 18.28125 76.097656 17.53125 74.351562 17.386719 72.503906 C 17.386719 72.199219 17.285156 71.917969 17.214844 71.644531 C 17.207031 71.132812 17.203125 70.632812 17.203125 70.144531 Z M 18.671875 69.777344 L 31.230469 69.777344 C 31.152344 65.804688 28.628906 62.992188 25.257812 62.964844 C 21.511719 62.914062 18.828125 65.667969 18.664062 69.757812 Z M 18.671875 69.777344 " fill-opacity="1" fill-rule="nonzero"/></g></svg>