<svg xmlns="http://www.w3.org/2000/svg" xmlns:xlink="http://www.w3.org/1999/xlink" width="189" zoomAndPan="magnify" viewBox="0 0 141.75 141.750002" height="189" preserveAspectRatio="xMidYMid meet" version="1.0"><defs><clipPath id="id1"><path d="M 0 19.3125 L 141.5 19.3125 L 141.5 122.0625 L 0 122.0625 Z M 0 19.3125 " clip-rule="nonzero"/></clipPath><clipPath id="id2"><path d="M 21 37 L 53.347656 37 L 53.347656 70.925781 L 21 70.925781 Z M 21 37 " clip-rule="nonzero"/></clipPath><clipPath id="id3"><path d="M 15.847656 65 L 22 65 L 22 70.925781 L 15.847656 70.925781 Z M 15.847656 65 " clip-rule="nonzero"/></clipPath><clipPath id="id4"><path d="M 47 26.675781 L 53.347656 26.675781 L 53.347656 34 L 47 34 Z M 47 26.675781 " clip-rule="nonzero"/></clipPath><clipPath id="id5"><path d="M 108.640625 42 L 126 42 L 126 62.1875 L 108.640625 62.1875 Z M 108.640625 42 " clip-rule="nonzero"/></clipPath><clipPath id="id6"><path d="M 108.640625 44 L 114 44 L 114 50 L 108.640625 50 Z M 108.640625 44 " clip-rule="nonzero"/></clipPath><clipPath id="id7"><path d="M 103.492188 72.777344 L 124 72.777344 L 124 96 L 103.492188 96 Z M 103.492188 72.777344 " clip-rule="nonzero"/></clipPath><clipPath id="id8"><path d="M 121.179688 79 L 128.191406 79 L 128.191406 86 L 121.179688 86 Z M 121.179688 79 " clip-rule="nonzero"/></clipPath><clipPath id="id9"><path d="M 26 83.46875 L 41.480469 83.46875 L 41.480469 97 L 26 97 Z M 26 83.46875 " clip-rule="nonzero"/></clipPath><clipPath id="id10"><path d="M 24.230469 86 L 32 86 L 32 95 L 24.230469 95 Z M 24.230469 86 " clip-rule="nonzero"/></clipPath><clipPath id="id11"><path d="M 35.195312 97.621094 L 38.324219 97.621094 L 38.324219 100.527344 L 35.195312 100.527344 Z M 35.195312 97.621094 " clip-rule="nonzero"/></clipPath><clipPath id="id12"><path d="M 83 96 L 100.421875 96 L 100.421875 106 L 83 106 Z M 83 96 " clip-rule="nonzero"/></clipPath><clipPath id="id13"><path d="M 70 24.207031 L 87 24.207031 L 87 87 L 70 87 Z M 70 24.207031 " clip-rule="nonzero"/></clipPath><clipPath id="id14"><path d="M 55 24.207031 L 72 24.207031 L 72 87 L 55 87 Z M 55 24.207031 " clip-rule="nonzero"/></clipPath><clipPath id="id15"><path d="M 69 77 L 74 77 L 74 95.457031 L 69 95.457031 Z M 69 77 " clip-rule="nonzero"/></clipPath></defs><g clip-path="url(#id1)"><path fill="rgb(35.289001%, 20.779419%, 52.938843%)" d="M 6.152344 87.003906 C 6.152344 86.710938 6.203125 86.464844 6.203125 86.167969 C 6.253906 85.429688 6.253906 85.476562 7.09375 85.132812 C 7.292969 85.082031 7.339844 84.738281 7.488281 84.589844 C 8.28125 83.703125 9.074219 82.816406 10.113281 81.632812 L 9.371094 79.167969 L 3.730469 77.6875 L 5.855469 76.308594 C 5.164062 75.417969 4.371094 74.777344 5.660156 73.742188 C 6.203125 73.300781 6.402344 71.96875 5.855469 70.6875 L 4.570312 73.988281 L 0.808594 71.917969 L 2.046875 71.375 L 2.640625 72.117188 L 3.433594 71.179688 L 4.175781 71.769531 C 3.828125 70.488281 3.183594 70.488281 2.097656 71.425781 C 1.898438 71.179688 1.699219 70.933594 1.601562 70.6875 C 1.253906 70.191406 1.007812 69.699219 0.808594 69.15625 C 0.710938 68.566406 0.660156 68.023438 0.710938 67.433594 L 1.007812 67.433594 L 1.75 68.515625 L 2.394531 67.234375 L 0.5625 66.398438 L 1.355469 66.101562 C 0.316406 65.359375 0.117188 63.929688 0.859375 62.945312 C 1.007812 62.75 1.15625 62.601562 1.304688 62.5 C 1.699219 62.207031 1.996094 61.761719 2.34375 61.417969 C 2.691406 61.070312 2.988281 60.53125 3.730469 61.023438 C 3.878906 61.121094 4.570312 60.875 4.71875 60.578125 C 5.363281 59.445312 6.449219 59.199219 7.539062 59.097656 C 8.28125 59.148438 8.925781 58.65625 9.074219 57.917969 C 9.371094 56.832031 9.714844 55.746094 10.011719 54.664062 C 11.25 49.929688 14.070312 46.082031 17.386719 42.535156 C 19.5625 40.167969 21.988281 38.046875 24.3125 35.828125 C 22.878906 34.101562 23.523438 32.328125 25.945312 31.882812 C 25.898438 31.636719 25.898438 31.339844 25.898438 31.390625 C 26.738281 31.191406 27.429688 31.046875 28.074219 30.847656 C 30.101562 30.257812 32.082031 29.417969 34.160156 29.074219 C 37.625 28.53125 40.988281 27.25 43.90625 25.324219 C 46.777344 23.453125 50.042969 22.761719 53.210938 21.726562 C 56.773438 20.542969 60.535156 20.347656 64.195312 20.050781 C 68.203125 19.65625 72.160156 19.410156 76.070312 19.359375 C 79.039062 19.3125 82.058594 19.707031 85.074219 19.902344 C 86.855469 20 88.640625 20.199219 90.421875 20.347656 C 90.617188 20.347656 90.867188 20.148438 91.0625 20.148438 C 91.707031 20.101562 92.398438 20.101562 93.042969 20.148438 C 93.882812 20.246094 94.675781 20.542969 95.515625 20.742188 C 95.714844 20.789062 96.011719 20.839844 96.0625 20.742188 C 96.851562 19.605469 97.445312 20.445312 98.089844 20.9375 C 98.386719 21.183594 98.929688 21.035156 99.277344 21.234375 C 99.921875 21.480469 100.515625 21.875 101.007812 22.417969 C 101.601562 23.207031 102.34375 23.796875 103.234375 24.191406 C 106.996094 25.96875 110.609375 27.988281 114.320312 29.960938 C 115.257812 30.453125 116 31.046875 117.238281 30.75 C 118.375 30.601562 119.5625 30.652344 120.652344 30.945312 C 121.496094 31.09375 121.941406 30.847656 122.1875 30.058594 C 122.582031 30.503906 123.078125 30.898438 123.621094 31.191406 C 123.871094 31.292969 124.363281 30.898438 124.710938 30.699219 C 124.957031 30.996094 125.207031 31.539062 125.402344 31.539062 C 127.183594 31.539062 128.175781 32.722656 128.867188 33.707031 C 128.769531 34.25 128.769531 34.84375 128.816406 35.382812 C 129.015625 36.273438 129.3125 37.109375 129.609375 37.949219 C 129.609375 38.046875 129.660156 38.097656 129.660156 38.195312 C 129.015625 39.476562 130.152344 40.5625 130.054688 41.746094 C 129.90625 42.238281 129.707031 42.679688 129.460938 43.125 C 129.558594 43.421875 129.957031 43.914062 129.957031 44.40625 C 129.90625 45.589844 130.597656 45.640625 131.09375 45.640625 C 132.230469 47.90625 133.074219 50.226562 134.507812 52.148438 C 135.449219 53.429688 135.894531 54.859375 136.636719 56.140625 C 137.921875 58.410156 139.058594 60.777344 140.050781 63.191406 C 140.742188 64.769531 140.988281 66.542969 141.386719 68.222656 C 141.484375 68.566406 141.535156 68.960938 141.632812 69.402344 C 141.039062 69.699219 140.792969 70.046875 141.136719 70.933594 C 141.484375 71.96875 141.535156 73.101562 141.335938 74.1875 C 141.039062 76.109375 140.445312 77.984375 140 79.90625 C 139.949219 80.25 139.902344 80.597656 139.902344 80.941406 C 139.949219 81.238281 139.902344 81.582031 139.800781 81.878906 C 138.761719 83.851562 137.625 85.773438 136.585938 87.695312 C 136.339844 88.1875 136.089844 88.632812 135.792969 89.125 C 134.507812 90.753906 133.222656 92.378906 131.933594 94.007812 C 131.042969 95.140625 130.054688 96.273438 129.066406 97.308594 C 127.925781 98.394531 126.789062 99.382812 125.550781 100.316406 C 122.878906 102.386719 120.355469 104.65625 117.484375 106.480469 C 114.417969 108.355469 111.25 110.03125 107.9375 111.410156 C 103.285156 113.382812 98.535156 115.207031 93.734375 116.734375 C 91.707031 117.378906 89.777344 118.3125 87.550781 118.460938 C 85.519531 118.609375 83.589844 119.546875 81.613281 120.089844 C 81.214844 120.1875 80.769531 120.679688 80.472656 119.941406 C 80.425781 119.84375 80.128906 119.84375 79.929688 119.890625 C 77.851562 120.335938 75.722656 120.730469 73.644531 121.222656 C 73.199219 121.320312 72.804688 121.765625 72.410156 122.0625 C 72.160156 121.222656 71.566406 120.976562 70.628906 120.976562 C 67.363281 121.074219 64.097656 121.222656 60.832031 120.976562 C 57.316406 120.632812 53.804688 120.089844 50.339844 119.398438 C 48.609375 119.101562 46.976562 118.460938 45.292969 117.96875 C 44.945312 117.820312 44.601562 117.773438 44.253906 117.820312 C 42.917969 118.265625 42.125 117.378906 41.136719 116.6875 C 39.949219 115.847656 38.5625 115.257812 37.277344 114.46875 C 35.199219 113.1875 33.023438 111.953125 31.042969 110.523438 C 29.757812 109.585938 28.421875 109.980469 27.183594 110.03125 C 25.648438 110.082031 24.214844 110.128906 22.878906 109.191406 C 22.679688 109.042969 22.632812 108.648438 22.484375 108.402344 C 22.285156 108.058594 22.085938 107.714844 21.886719 107.367188 L 23.175781 105.148438 L 22.929688 104.953125 L 21.441406 105.644531 C 21.492188 104.753906 21.738281 103.964844 21.492188 103.472656 C 20.996094 102.488281 21.144531 100.957031 19.511719 100.761719 C 19.363281 100.761719 19.316406 100.171875 19.214844 99.875 C 18.175781 100.316406 17.1875 100.8125 16.148438 101.15625 C 15.652344 101.207031 15.109375 101.207031 14.613281 101.058594 C 14.269531 101.058594 13.921875 101.007812 13.574219 100.910156 C 12.636719 100.5625 11.695312 100.171875 10.753906 99.777344 C 10.65625 99.726562 10.605469 99.578125 10.605469 99.480469 C 11.152344 97.902344 9.816406 97.113281 9.519531 96.027344 C 9.566406 95.289062 9.816406 94.449219 9.566406 93.859375 C 9.171875 93.019531 8.28125 92.625 7.390625 92.871094 L 8.527344 92.183594 L 7.886719 91.046875 C 8.035156 90.800781 8.183594 90.605469 8.28125 90.359375 C 8.675781 89.273438 8.183594 87.546875 7.242188 86.90625 C 6.945312 86.808594 6.5 86.957031 6.152344 87.003906 Z M 65.183594 117.722656 C 65.234375 117.476562 65.285156 117.230469 65.285156 116.933594 C 65.234375 116.6875 64.988281 116.488281 64.886719 116.242188 C 64.640625 115.503906 62.808594 114.371094 62.414062 114.863281 C 61.472656 115.949219 60.535156 115.652344 59.445312 115.40625 C 59.246094 115.40625 59.050781 115.40625 58.851562 115.503906 C 57.417969 115.898438 55.980469 116.292969 54.597656 116.734375 C 54.941406 117.671875 61.96875 118.511719 65.183594 117.722656 Z M 109.421875 31.242188 L 109.570312 30.601562 C 107.6875 29.8125 105.859375 28.976562 103.929688 28.234375 C 103.53125 28.085938 102.988281 28.234375 102.246094 28.234375 C 102.742188 28.726562 103.085938 28.976562 103.039062 29.121094 C 102.542969 30.800781 103.78125 30.75 104.769531 30.847656 C 105.660156 30.996094 106.550781 31.046875 107.390625 31.09375 C 108.132812 31.144531 108.777344 31.191406 109.421875 31.242188 Z M 18.425781 45.886719 L 18.722656 46.28125 C 19.167969 46.035156 19.613281 45.789062 20.058594 45.539062 C 21.148438 44.898438 22.1875 44.160156 23.273438 43.570312 C 24.808594 42.78125 25.203125 41.84375 24.5625 40.019531 Z M 39.703125 112.347656 L 40.046875 112.152344 C 40 111.855469 40 111.363281 39.898438 111.363281 C 39.007812 111.164062 38.910156 110.425781 38.8125 109.832031 L 35.546875 109.539062 L 35.347656 109.882812 Z M 14.121094 55.351562 L 13.773438 55.203125 L 12.734375 57.324219 C 14.121094 57.667969 14.269531 57.421875 14.121094 55.351562 Z M 26.984375 39.773438 L 26.738281 39.625 C 26.492188 40.019531 26.242188 40.414062 26.09375 40.855469 C 26.046875 40.957031 26.589844 41.203125 26.984375 41.496094 Z M 6.152344 87.003906 C 5.90625 87.105469 5.558594 87.105469 5.460938 87.300781 C 5.3125 87.648438 5.164062 87.992188 5.113281 88.335938 L 5.90625 90.359375 L 6.945312 90.160156 L 5.757812 89.078125 L 6.597656 88.4375 C 6.351562 88.1875 6.152344 87.894531 5.957031 87.597656 C 5.90625 87.449219 6.054688 87.203125 6.152344 87.003906 C 6.152344 86.957031 6.152344 87.003906 6.152344 87.003906 Z M 6.152344 87.003906 " fill-opacity="1" fill-rule="nonzero"/></g><g clip-path="url(#id2)"><path fill="rgb(93.728638%, 58.039856%, 79.219055%)" d="M 104.132812 78.59375 C 68.636719 81.875 65.984375 84.535156 62.71875 120.183594 C 59.449219 84.535156 56.800781 81.875 21.300781 78.59375 C 56.800781 75.3125 59.449219 72.652344 62.71875 37.003906 C 65.984375 72.652344 68.636719 75.3125 104.132812 78.59375 " fill-opacity="1" fill-rule="nonzero"/></g><path fill="rgb(93.728638%, 58.039856%, 79.219055%)" d="M 43.832031 50.546875 C 35.761719 51.292969 35.160156 51.898438 34.414062 60.003906 C 33.671875 51.898438 33.070312 51.292969 25 50.546875 C 33.070312 49.800781 33.671875 49.195312 34.414062 41.089844 C 35.160156 49.195312 35.761719 49.800781 43.832031 50.546875 " fill-opacity="1" fill-rule="nonzero"/><g clip-path="url(#id3)"><path fill="rgb(93.728638%, 58.039856%, 79.219055%)" d="M 21.300781 68.425781 C 18.546875 68.683594 18.339844 68.886719 18.085938 71.65625 C 17.832031 68.886719 17.625 68.683594 14.871094 68.425781 C 17.625 68.171875 17.832031 67.964844 18.085938 65.195312 C 18.339844 67.964844 18.546875 68.171875 21.300781 68.425781 " fill-opacity="1" fill-rule="nonzero"/></g><g clip-path="url(#id4)"><path fill="rgb(93.728638%, 58.039856%, 79.219055%)" d="M 53.945312 29.910156 C 51.1875 30.164062 50.980469 30.371094 50.726562 33.140625 C 50.472656 30.371094 50.269531 30.164062 47.511719 29.910156 C 50.269531 29.65625 50.472656 29.449219 50.726562 26.679688 C 50.980469 29.449219 51.1875 29.65625 53.945312 29.910156 " fill-opacity="1" fill-rule="nonzero"/></g><g clip-path="url(#id5)"><path fill="rgb(93.728638%, 58.039856%, 79.219055%)" d="M 125.566406 67.621094 C 103.828125 69.625 102.203125 71.25 100.203125 93.007812 C 98.203125 71.25 96.582031 69.625 74.839844 67.621094 C 96.582031 65.621094 98.203125 63.996094 100.203125 42.238281 C 102.203125 63.996094 103.828125 65.621094 125.566406 67.621094 " fill-opacity="1" fill-rule="nonzero"/></g><path fill="rgb(93.728638%, 58.039856%, 79.219055%)" d="M 123.550781 42.761719 C 121.863281 42.917969 121.738281 43.042969 121.582031 44.734375 C 121.425781 43.042969 121.300781 42.917969 119.609375 42.761719 C 121.300781 42.605469 121.425781 42.480469 121.582031 40.789062 C 121.738281 42.480469 121.863281 42.605469 123.550781 42.761719 " fill-opacity="1" fill-rule="nonzero"/><g clip-path="url(#id6)"><path fill="rgb(93.728638%, 58.039856%, 79.219055%)" d="M 113.519531 46.925781 C 111.296875 47.132812 111.132812 47.296875 110.925781 49.523438 C 110.722656 47.296875 110.554688 47.132812 108.332031 46.925781 C 110.554688 46.722656 110.722656 46.554688 110.925781 44.332031 C 111.132812 46.554688 111.296875 46.722656 113.519531 46.925781 " fill-opacity="1" fill-rule="nonzero"/></g><path fill="rgb(93.728638%, 58.039856%, 79.219055%)" d="M 124.902344 56.816406 C 121.785156 57.105469 121.550781 57.335938 121.265625 60.457031 C 120.976562 57.335938 120.746094 57.105469 117.625 56.816406 C 120.746094 56.53125 120.976562 56.296875 121.265625 53.175781 C 121.550781 56.296875 121.785156 56.53125 124.902344 56.816406 " fill-opacity="1" fill-rule="nonzero"/><g clip-path="url(#id7)"><path fill="rgb(93.728638%, 58.039856%, 79.219055%)" d="M 123.375 69.066406 C 100.535156 71.164062 98.832031 72.867188 96.730469 95.675781 C 94.625 72.867188 92.921875 71.164062 70.082031 69.066406 C 92.921875 66.96875 94.625 65.265625 96.730469 42.457031 C 98.832031 65.265625 100.535156 66.96875 123.375 69.066406 " fill-opacity="1" fill-rule="nonzero"/></g><g clip-path="url(#id8)"><path fill="rgb(93.728638%, 58.039856%, 79.219055%)" d="M 128.195312 82.492188 C 125.222656 82.765625 125 82.984375 124.726562 85.953125 C 124.453125 82.984375 124.230469 82.765625 121.257812 82.492188 C 124.230469 82.21875 124.453125 81.996094 124.726562 79.027344 C 125 81.996094 125.222656 82.21875 128.195312 82.492188 " fill-opacity="1" fill-rule="nonzero"/></g><path fill="rgb(93.728638%, 58.039856%, 79.219055%)" d="M 112.132812 80.425781 C 110.359375 80.585938 110.226562 80.71875 110.0625 82.492188 C 109.902344 80.71875 109.769531 80.585938 107.996094 80.425781 C 109.769531 80.261719 109.902344 80.128906 110.0625 78.359375 C 110.226562 80.128906 110.359375 80.261719 112.132812 80.425781 " fill-opacity="1" fill-rule="nonzero"/><path fill="rgb(93.728638%, 58.039856%, 79.219055%)" d="M 118.359375 94.960938 C 115.160156 95.253906 114.921875 95.492188 114.625 98.6875 C 114.332031 95.492188 114.09375 95.253906 110.894531 94.960938 C 114.09375 94.667969 114.332031 94.429688 114.625 91.234375 C 114.921875 94.429688 115.160156 94.667969 118.359375 94.960938 " fill-opacity="1" fill-rule="nonzero"/><g clip-path="url(#id9)"><path fill="rgb(93.728638%, 58.039856%, 79.219055%)" d="M 64.617188 78.0625 C 48.378906 79.535156 47.167969 80.726562 45.671875 96.714844 C 44.179688 80.726562 42.96875 79.535156 26.730469 78.0625 C 42.96875 76.589844 44.179688 75.398438 45.671875 59.410156 C 47.167969 75.398438 48.378906 76.589844 64.617188 78.0625 " fill-opacity="1" fill-rule="nonzero"/></g><g clip-path="url(#id10)"><path fill="rgb(93.728638%, 58.039856%, 79.219055%)" d="M 31.789062 90.25 C 28.507812 90.546875 28.261719 90.789062 27.960938 94.015625 C 27.660156 90.789062 27.414062 90.546875 24.132812 90.25 C 27.414062 89.953125 27.660156 89.710938 27.960938 86.480469 C 28.261719 89.710938 28.507812 89.953125 31.789062 90.25 " fill-opacity="1" fill-rule="nonzero"/></g><g clip-path="url(#id11)"><path fill="rgb(93.728638%, 58.039856%, 79.219055%)" d="M 38.230469 99.078125 C 36.96875 99.191406 36.875 99.285156 36.757812 100.527344 C 36.640625 99.285156 36.546875 99.191406 35.285156 99.078125 C 36.546875 98.964844 36.640625 98.871094 36.757812 97.628906 C 36.875 98.871094 36.96875 98.964844 38.230469 99.078125 " fill-opacity="1" fill-rule="nonzero"/></g><path fill="rgb(93.728638%, 58.039856%, 79.219055%)" d="M 37.691406 86.027344 C 36.429688 86.140625 36.335938 86.234375 36.21875 87.476562 C 36.101562 86.234375 36.007812 86.140625 34.75 86.027344 C 36.007812 85.910156 36.101562 85.820312 36.21875 84.578125 C 36.335938 85.820312 36.429688 85.910156 37.691406 86.027344 " fill-opacity="1" fill-rule="nonzero"/><path fill="rgb(52.938843%, 79.60968%, 15.689087%)" d="M 44.957031 102.691406 L 44.957031 104.167969 C 44.953125 104.226562 44.957031 104.285156 44.964844 104.34375 C 44.984375 104.519531 45.09375 104.625 45.253906 104.675781 C 45.402344 104.714844 45.554688 104.742188 45.707031 104.761719 C 45.796875 104.773438 45.828125 104.8125 45.835938 104.90625 C 45.847656 105.234375 45.816406 105.273438 45.492188 105.253906 C 44.734375 105.214844 43.972656 105.207031 43.214844 105.253906 L 43.140625 105.253906 C 42.90625 105.265625 42.886719 105.246094 42.886719 105.011719 C 42.886719 104.972656 42.894531 104.925781 42.894531 104.886719 C 42.894531 104.8125 42.945312 104.777344 43.015625 104.777344 C 43.171875 104.757812 43.320312 104.71875 43.46875 104.691406 C 43.675781 104.640625 43.792969 104.515625 43.8125 104.3125 C 43.84375 104.089844 43.84375 103.855469 43.84375 103.628906 L 43.851562 101.023438 C 43.859375 100.855469 43.789062 100.734375 43.636719 100.65625 C 43.457031 100.558594 43.269531 100.480469 43.074219 100.421875 C 43.015625 100.402344 42.957031 100.394531 42.90625 100.363281 C 42.761719 100.292969 42.757812 100.167969 42.894531 100.089844 C 42.945312 100.0625 43.003906 100.042969 43.0625 100.03125 C 43.664062 99.945312 44.25 99.800781 44.816406 99.59375 C 44.9375 99.554688 44.964844 99.566406 44.976562 99.683594 C 44.988281 99.753906 44.976562 99.839844 44.964844 99.90625 C 44.949219 100.03125 44.949219 100.160156 44.949219 100.277344 C 44.949219 100.324219 44.957031 100.375 45.007812 100.402344 C 45.054688 100.429688 45.105469 100.402344 45.152344 100.375 C 45.359375 100.21875 45.566406 100.070312 45.792969 99.945312 C 46.117188 99.773438 46.460938 99.617188 46.835938 99.566406 C 47.292969 99.507812 47.683594 99.625 48.03125 99.917969 C 48.175781 100.042969 48.300781 100.1875 48.40625 100.34375 C 48.503906 100.488281 48.515625 100.492188 48.640625 100.394531 C 49.015625 100.121094 49.410156 99.878906 49.835938 99.703125 C 50.28125 99.519531 50.734375 99.488281 51.1875 99.644531 C 51.648438 99.808594 51.964844 100.132812 52.152344 100.570312 C 52.3125 100.917969 52.378906 101.28125 52.378906 101.65625 L 52.378906 104.261719 C 52.378906 104.4375 52.453125 104.546875 52.625 104.632812 C 52.8125 104.703125 53.019531 104.738281 53.21875 104.777344 C 53.347656 104.808594 53.347656 104.808594 53.347656 104.933594 C 53.328125 105.253906 53.296875 105.277344 52.980469 105.253906 C 52.191406 105.210938 51.398438 105.210938 50.605469 105.253906 C 50.445312 105.265625 50.445312 105.265625 50.4375 105.109375 L 50.4375 105.0625 C 50.429688 104.796875 50.429688 104.796875 50.683594 104.742188 L 50.941406 104.671875 C 51.144531 104.625 51.246094 104.5 51.246094 104.292969 L 51.277344 103.5625 L 51.257812 101.660156 C 51.25 101.488281 51.210938 101.320312 51.148438 101.164062 C 50.902344 100.570312 50.359375 100.355469 49.835938 100.414062 C 49.441406 100.453125 49.097656 100.609375 48.769531 100.832031 C 48.703125 100.882812 48.652344 100.941406 48.664062 101.035156 C 48.753906 101.660156 48.691406 102.28125 48.703125 102.902344 L 48.703125 104.257812 C 48.703125 104.5 48.800781 104.617188 49.039062 104.675781 L 49.492188 104.773438 C 49.5625 104.78125 49.601562 104.8125 49.601562 104.886719 L 49.601562 104.960938 C 49.589844 105.230469 49.574219 105.246094 49.296875 105.242188 C 48.507812 105.203125 47.71875 105.214844 46.9375 105.242188 C 46.671875 105.25 46.648438 105.222656 46.664062 104.957031 C 46.671875 104.800781 46.691406 104.792969 46.839844 104.761719 L 47.164062 104.703125 C 47.453125 104.644531 47.558594 104.539062 47.578125 104.238281 L 47.609375 103.585938 L 47.589844 101.632812 C 47.570312 101.386719 47.515625 101.15625 47.382812 100.929688 C 47.183594 100.570312 46.875 100.386719 46.453125 100.367188 C 46.03125 100.339844 45.65625 100.492188 45.300781 100.6875 C 45.050781 100.828125 44.945312 100.996094 44.964844 101.28125 L 44.964844 102.699219 Z M 63.53125 102.75 L 63.53125 104.121094 C 63.535156 104.21875 63.539062 104.316406 63.550781 104.414062 C 63.5625 104.5625 63.640625 104.652344 63.789062 104.6875 C 63.960938 104.734375 64.132812 104.765625 64.3125 104.773438 C 64.410156 104.78125 64.429688 104.820312 64.441406 104.898438 L 64.441406 104.96875 C 64.429688 105.308594 64.390625 105.347656 64.054688 105.328125 C 63.304688 105.28125 62.554688 105.289062 61.808594 105.328125 L 61.519531 105.339844 C 61.460938 105.339844 61.445312 105.308594 61.429688 105.269531 C 61.398438 105.132812 61.398438 104.996094 61.429688 104.863281 C 61.441406 104.804688 61.476562 104.789062 61.539062 104.773438 C 61.683594 104.753906 61.804688 104.726562 61.941406 104.703125 C 62.1875 104.644531 62.277344 104.546875 62.285156 104.292969 L 62.316406 103.476562 L 62.316406 101.085938 C 62.316406 100.910156 62.246094 100.804688 62.089844 100.726562 C 61.910156 100.628906 61.722656 100.558594 61.527344 100.492188 C 61.46875 100.472656 61.40625 100.453125 61.359375 100.421875 C 61.230469 100.335938 61.214844 100.210938 61.339844 100.113281 C 61.398438 100.066406 61.460938 100.039062 61.535156 100.035156 C 62.167969 99.9375 62.777344 99.800781 63.371094 99.566406 C 63.441406 99.539062 63.46875 99.558594 63.5 99.617188 C 63.527344 99.675781 63.539062 99.742188 63.527344 99.808594 L 63.5 100.265625 C 63.5 100.324219 63.46875 100.410156 63.519531 100.433594 C 63.578125 100.472656 63.617188 100.382812 63.667969 100.359375 C 63.957031 100.121094 64.277344 99.917969 64.621094 99.757812 C 64.929688 99.617188 65.242188 99.523438 65.597656 99.542969 C 66.261719 99.585938 66.734375 99.914062 67.039062 100.488281 C 67.199219 100.789062 67.265625 101.121094 67.292969 101.460938 L 67.324219 102.171875 L 67.332031 104.320312 C 67.34375 104.488281 67.402344 104.59375 67.570312 104.652344 C 67.746094 104.710938 67.921875 104.75 68.101562 104.777344 C 68.261719 104.796875 68.269531 104.828125 68.28125 104.972656 L 68.28125 105.023438 C 68.261719 105.351562 68.242188 105.363281 67.90625 105.339844 C 67.167969 105.304688 66.433594 105.304688 65.695312 105.339844 C 65.597656 105.351562 65.5 105.339844 65.40625 105.351562 C 65.347656 105.351562 65.308594 105.339844 65.300781 105.285156 C 65.28125 105.15625 65.261719 105.03125 65.289062 104.894531 C 65.300781 104.835938 65.328125 104.804688 65.398438 104.796875 L 65.851562 104.726562 C 66.011719 104.6875 66.097656 104.582031 66.121094 104.441406 L 66.140625 104.167969 L 66.128906 102.136719 C 66.128906 101.902344 66.117188 101.667969 66.070312 101.4375 C 65.953125 100.9375 65.566406 100.582031 65.046875 100.53125 C 64.589844 100.484375 64.179688 100.601562 63.800781 100.84375 C 63.613281 100.960938 63.535156 101.125 63.535156 101.328125 L 63.535156 102.796875 C 63.535156 102.769531 63.535156 102.769531 63.546875 102.769531 Z M 63.53125 102.75 " fill-opacity="1" fill-rule="nonzero"/><g clip-path="url(#id12)"><path fill="rgb(100%, 100%, 100%)" d="M 92.410156 100 C 92.304688 99.289062 92.035156 98.65625 91.574219 98.101562 C 91.164062 97.605469 90.65625 97.234375 90.054688 96.992188 C 89.433594 96.742188 88.773438 96.664062 88.101562 96.644531 C 87.824219 96.632812 84.058594 96.691406 83.78125 96.644531 C 83.710938 96.632812 83.664062 96.652344 83.625 96.710938 C 83.574219 96.78125 83.523438 96.859375 83.496094 96.933594 C 83.375 97.199219 83.375 97.179688 83.664062 97.214844 C 83.898438 97.257812 84.125 97.273438 84.351562 97.34375 C 84.558594 97.410156 84.707031 97.527344 84.757812 97.75 C 84.777344 97.859375 84.796875 101.28125 84.796875 102.875 L 84.757812 104.015625 C 84.746094 104.101562 84.738281 104.191406 84.707031 104.265625 C 84.667969 104.382812 84.597656 104.480469 84.480469 104.53125 C 84.351562 104.589844 84.210938 104.628906 84.066406 104.636719 C 83.800781 104.664062 83.761719 104.675781 83.671875 104.96875 L 83.644531 105.074219 C 83.625 105.203125 83.632812 105.222656 83.761719 105.222656 L 86.710938 105.25 L 87.863281 105.230469 L 88.664062 105.132812 C 89.570312 104.96875 90.378906 104.597656 91.070312 104.003906 C 91.46875 103.65625 91.78125 103.25 92.015625 102.78125 C 92.292969 102.234375 92.410156 101.640625 92.441406 101.039062 C 92.488281 100.699219 92.46875 100.347656 92.410156 100 Z M 90.980469 101.378906 C 90.941406 102 90.8125 102.605469 90.488281 103.148438 C 90.074219 103.859375 89.480469 104.355469 88.664062 104.527344 C 88.308594 104.597656 87.953125 104.636719 87.582031 104.585938 C 87.316406 104.558594 87.058594 104.527344 86.8125 104.441406 C 86.367188 104.285156 86.210938 104.015625 86.203125 103.585938 L 86.191406 97.722656 C 86.191406 97.375 86.351562 97.296875 86.605469 97.285156 C 86.988281 97.257812 87.382812 97.265625 87.769531 97.304688 C 88.179688 97.34375 88.578125 97.441406 88.960938 97.589844 C 89.25 97.707031 89.507812 97.867188 89.742188 98.066406 C 90.273438 98.515625 90.628906 99.078125 90.824219 99.738281 C 90.984375 100.273438 91.011719 100.820312 90.984375 101.363281 Z M 100.605469 102.332031 C 100.605469 102.273438 100.605469 102.226562 100.597656 102.167969 C 100.507812 101.632812 100.222656 101.222656 99.777344 100.914062 C 99.492188 100.707031 99.167969 100.574219 98.832031 100.476562 C 98.773438 100.457031 98.722656 100.4375 98.664062 100.425781 C 98.675781 100.378906 98.703125 100.367188 98.734375 100.359375 C 98.929688 100.261719 99.117188 100.152344 99.285156 100.007812 C 99.589844 99.753906 99.789062 99.445312 99.894531 99.066406 C 99.957031 98.859375 99.957031 98.65625 99.9375 98.441406 C 99.902344 97.90625 99.660156 97.484375 99.214844 97.175781 C 98.761719 96.847656 98.230469 96.710938 97.675781 96.699219 C 96.613281 96.683594 95.539062 96.699219 94.472656 96.699219 C 94.167969 96.699219 93.863281 96.71875 93.546875 96.671875 C 93.488281 96.664062 93.402344 96.644531 93.359375 96.710938 C 93.285156 96.839844 93.199219 96.964844 93.171875 97.109375 C 93.160156 97.179688 93.179688 97.214844 93.261719 97.226562 L 93.941406 97.324219 C 94.207031 97.363281 94.394531 97.507812 94.414062 97.742188 C 94.433594 97.902344 94.441406 98.066406 94.441406 98.230469 L 94.421875 100.046875 L 94.414062 103.644531 C 94.414062 103.859375 94.382812 104.0625 94.34375 104.277344 C 94.320312 104.425781 94.238281 104.523438 94.085938 104.566406 C 93.890625 104.625 93.703125 104.683594 93.496094 104.683594 C 93.367188 104.671875 93.28125 104.726562 93.238281 104.847656 C 93.199219 104.9375 93.167969 105.035156 93.152344 105.121094 C 93.132812 105.238281 93.160156 105.277344 93.28125 105.265625 C 93.367188 105.253906 96.621094 105.332031 97.234375 105.273438 C 97.597656 105.234375 97.957031 105.1875 98.316406 105.078125 C 98.9375 104.886719 99.511719 104.601562 99.964844 104.125 C 100.339844 103.738281 100.554688 103.269531 100.574219 102.726562 C 100.605469 102.597656 100.605469 102.472656 100.605469 102.335938 Z M 95.824219 98.347656 L 95.851562 97.570312 C 95.851562 97.425781 95.910156 97.355469 96.058594 97.328125 C 96.296875 97.277344 96.53125 97.296875 96.769531 97.308594 C 97.007812 97.328125 97.234375 97.355469 97.46875 97.425781 C 97.902344 97.550781 98.238281 97.792969 98.4375 98.203125 C 98.527344 98.390625 98.574219 98.585938 98.574219 98.796875 C 98.585938 99.066406 98.5625 99.328125 98.457031 99.59375 C 98.289062 99.953125 98.023438 100.183594 97.636719 100.253906 C 97.253906 100.320312 96.160156 100.292969 95.992188 100.292969 C 95.84375 100.292969 95.832031 100.273438 95.832031 100.128906 L 95.832031 99.210938 C 95.808594 98.925781 95.804688 98.640625 95.824219 98.355469 Z M 99.027344 103.578125 C 98.859375 104.015625 98.554688 104.320312 98.121094 104.480469 C 97.882812 104.570312 97.648438 104.625 97.398438 104.609375 C 97.09375 104.597656 96.789062 104.609375 96.484375 104.550781 C 96.070312 104.464844 95.882812 104.074219 95.851562 103.792969 C 95.800781 103.296875 95.832031 102.789062 95.824219 102.421875 L 95.824219 101.136719 C 95.824219 100.980469 95.84375 100.933594 96.011719 100.933594 L 96.9375 100.941406 L 97.570312 101.015625 C 98.011719 101.113281 98.417969 101.277344 98.734375 101.617188 C 98.988281 101.890625 99.128906 102.21875 99.15625 102.578125 C 99.1875 102.917969 99.167969 103.25 99.039062 103.570312 Z M 99.027344 103.578125 " fill-opacity="1" fill-rule="nonzero"/></g><path fill="rgb(52.938843%, 79.60968%, 15.689087%)" d="M 73.976562 100.648438 L 74.230469 100.6875 C 74.507812 100.699219 74.832031 100.601562 74.933594 100.222656 C 74.988281 100.035156 74.988281 99.851562 74.933594 99.667969 C 74.871094 99.667969 74.84375 99.714844 74.8125 99.734375 C 74.664062 99.851562 74.496094 99.917969 74.320312 99.9375 C 73.964844 99.976562 73.609375 99.957031 73.265625 99.832031 L 72.78125 99.667969 C 72.441406 99.558594 72.09375 99.511719 71.734375 99.53125 C 71.234375 99.570312 70.757812 99.734375 70.316406 99.96875 C 69.84375 100.222656 69.507812 100.601562 69.347656 101.117188 C 69.261719 101.417969 69.25 101.730469 69.289062 102.039062 C 69.390625 102.75 69.761719 103.246094 70.433594 103.507812 C 70.472656 103.519531 70.503906 103.539062 70.542969 103.546875 C 70.628906 103.597656 70.640625 103.644531 70.5625 103.714844 L 70.316406 103.878906 L 69.722656 104.238281 C 69.574219 104.328125 69.554688 104.394531 69.605469 104.550781 C 69.664062 104.734375 69.769531 104.890625 69.917969 105.015625 C 70.054688 105.132812 70.207031 105.222656 70.375 105.289062 C 70.480469 105.335938 70.480469 105.359375 70.382812 105.445312 L 69.820312 105.84375 C 69.632812 105.984375 69.445312 106.128906 69.289062 106.3125 C 69.050781 106.5625 68.972656 106.851562 69.050781 107.1875 C 69.128906 107.53125 69.296875 107.824219 69.5625 108.0625 C 69.824219 108.300781 70.125 108.460938 70.472656 108.546875 C 71.023438 108.703125 71.59375 108.710938 72.15625 108.605469 C 72.964844 108.460938 73.671875 108.105469 74.226562 107.507812 C 74.613281 107.109375 74.839844 106.640625 74.859375 106.082031 C 74.882812 105.75 74.792969 105.449219 74.589844 105.179688 C 74.390625 104.914062 74.125 104.742188 73.792969 104.664062 L 73.261719 104.566406 L 71.636719 104.425781 C 71.457031 104.414062 71.28125 104.386719 71.132812 104.296875 C 70.945312 104.179688 70.894531 103.957031 71.015625 103.8125 C 71.101562 103.707031 71.210938 103.636719 71.347656 103.625 L 71.664062 103.597656 C 72.304688 103.535156 72.859375 103.285156 73.332031 102.851562 C 73.578125 102.621094 73.746094 102.347656 73.832031 102.023438 C 73.953125 101.605469 73.953125 101.167969 73.851562 100.742188 C 73.824219 100.636719 73.832031 100.625 73.972656 100.644531 Z M 71.558594 105.492188 C 71.617188 105.503906 71.675781 105.492188 71.734375 105.492188 C 72.148438 105.511719 72.574219 105.539062 72.976562 105.648438 C 73.109375 105.6875 73.238281 105.734375 73.363281 105.796875 C 73.757812 106.007812 73.90625 106.378906 73.855469 106.777344 C 73.796875 107.214844 73.550781 107.523438 73.164062 107.730469 C 72.910156 107.871094 72.621094 107.933594 72.328125 107.964844 C 72.21875 107.972656 72.121094 107.964844 72.011719 107.964844 C 71.667969 107.972656 71.332031 107.933594 71.003906 107.796875 C 70.777344 107.710938 70.589844 107.585938 70.425781 107.410156 C 70.078125 107.070312 69.917969 106.445312 70.433594 105.941406 C 70.75 105.65625 71.105469 105.453125 71.558594 105.492188 Z M 72.683594 102.457031 C 72.476562 102.972656 72.023438 103.128906 71.570312 103.0625 C 71.15625 103.003906 70.847656 102.78125 70.652344 102.410156 C 70.394531 101.914062 70.328125 101.398438 70.476562 100.863281 C 70.582031 100.464844 70.828125 100.164062 71.261719 100.09375 C 71.816406 99.996094 72.34375 100.191406 72.625 100.738281 C 72.769531 101 72.832031 101.320312 72.832031 101.777344 C 72.820312 101.960938 72.78125 102.214844 72.683594 102.457031 Z M 60.257812 101.796875 C 60.171875 101.273438 59.972656 100.796875 59.609375 100.398438 C 59.066406 99.804688 58.375 99.542969 57.597656 99.539062 C 56.917969 99.53125 56.277344 99.726562 55.703125 100.074219 C 55.117188 100.421875 54.734375 100.917969 54.550781 101.5625 C 54.382812 102.128906 54.390625 102.703125 54.519531 103.273438 C 54.867188 104.8125 56.070312 105.472656 57.507812 105.375 C 57.933594 105.347656 58.335938 105.210938 58.71875 105.023438 C 59.292969 104.761719 59.707031 104.34375 59.992188 103.789062 C 60.21875 103.332031 60.316406 102.847656 60.308594 102.292969 Z M 58.859375 103.957031 C 58.789062 104.179688 58.660156 104.363281 58.476562 104.511719 C 58.289062 104.660156 58.078125 104.746094 57.84375 104.773438 C 57.410156 104.832031 57.003906 104.722656 56.640625 104.472656 C 56.375 104.277344 56.167969 104.035156 56.019531 103.742188 C 55.617188 102.925781 55.546875 102.070312 55.753906 101.195312 C 55.820312 100.917969 55.957031 100.679688 56.167969 100.484375 C 56.53125 100.152344 56.957031 100.074219 57.429688 100.171875 C 57.882812 100.269531 58.226562 100.511719 58.511719 100.882812 C 58.796875 101.253906 58.925781 101.679688 59.003906 102.128906 C 59.042969 102.351562 59.042969 102.585938 59.054688 102.730469 C 59.054688 103.199219 59.015625 103.585938 58.867188 103.957031 Z M 81.804688 101.875 C 81.730469 101.3125 81.519531 100.796875 81.113281 100.367188 C 80.582031 99.792969 79.890625 99.550781 79.121094 99.542969 C 78.460938 99.53125 77.851562 99.714844 77.289062 100.039062 C 76.65625 100.40625 76.222656 100.933594 76.054688 101.640625 C 75.847656 102.441406 75.929688 103.210938 76.292969 103.957031 C 76.617188 104.636719 77.167969 105.074219 77.898438 105.269531 C 78.707031 105.480469 79.476562 105.386719 80.226562 105.023438 C 80.878906 104.714844 81.339844 104.226562 81.605469 103.566406 C 81.765625 103.175781 81.824219 102.757812 81.832031 102.273438 C 81.84375 102.183594 81.824219 102.03125 81.804688 101.875 Z M 80.445312 103.828125 C 80.285156 104.355469 79.949219 104.695312 79.386719 104.773438 C 78.972656 104.832031 78.582031 104.734375 78.226562 104.5 C 77.917969 104.296875 77.703125 104.023438 77.542969 103.703125 C 77.367188 103.363281 77.269531 103.003906 77.230469 102.632812 C 77.167969 102.175781 77.167969 101.730469 77.277344 101.273438 C 77.296875 101.183594 77.328125 101.09375 77.367188 101.011719 C 77.644531 100.328125 78.253906 100.019531 78.972656 100.175781 C 79.457031 100.28125 79.820312 100.542969 80.097656 100.941406 C 80.367188 101.332031 80.492188 101.761719 80.554688 102.222656 C 80.582031 102.410156 80.59375 102.601562 80.582031 102.769531 C 80.582031 103.148438 80.554688 103.496094 80.4375 103.835938 Z M 80.445312 103.828125 " fill-opacity="1" fill-rule="nonzero"/><g clip-path="url(#id13)"><path fill="rgb(34.899902%, 58.81958%, 21.179199%)" d="M 70.59375 24.402344 L 72.472656 27.972656 C 72.894531 28.632812 73.351562 29.214844 73.890625 29.757812 C 75.460938 31.351562 76.953125 33.019531 78.296875 34.804688 C 81.476562 39.035156 83.625 43.730469 85.15625 48.8125 C 86.074219 51.917969 86.574219 55.101562 86.613281 58.320312 C 86.765625 67.945312 83.507812 76.210938 76.9375 83.078125 C 75.863281 84.167969 74.714844 85.171875 73.484375 86.066406 C 72.832031 86.066406 72.527344 85.5625 72.257812 85.097656 C 71.757812 84.246094 71.453125 83.269531 71.296875 82.300781 C 71.066406 81.136719 70.917969 79.972656 70.992188 78.769531 L 70.992188 78.226562 C 70.9375 78.113281 70.363281 24.675781 70.59375 24.402344 Z M 70.59375 24.402344 " fill-opacity="1" fill-rule="nonzero"/></g><g clip-path="url(#id14)"><path fill="rgb(42.349243%, 67.449951%, 28.239441%)" d="M 70.59375 24.28125 C 70.515625 24.128906 70.4375 24.246094 70.363281 24.320312 C 70.398438 25.101562 70.132812 25.792969 69.710938 26.457031 C 69.25 27.117188 68.636719 27.621094 68.023438 28.167969 C 64.617188 31.152344 61.933594 34.761719 59.785156 38.800781 C 56.925781 44.234375 55.453125 50.054688 55.035156 56.183594 C 54.84375 58.394531 55.726562 66.199219 56.414062 68.449219 C 58.292969 74.425781 61.664062 79.433594 66.035156 83.777344 C 67.109375 84.824219 68.253906 85.796875 69.441406 86.730469 C 69.789062 86.730469 69.824219 86.417969 69.90625 86.1875 C 70.054688 85.691406 70.171875 85.183594 70.25 84.671875 L 71.019531 78.851562 Z M 70.59375 24.28125 " fill-opacity="1" fill-rule="nonzero"/></g><g clip-path="url(#id15)"><path fill="rgb(76.078796%, 74.899292%, 74.899292%)" d="M 72.472656 88.433594 C 72.546875 87.542969 72.96875 86.800781 73.429688 86.066406 C 72.96875 85.871094 72.625 85.488281 72.355469 85.058594 C 72.125 84.667969 71.933594 84.203125 71.785156 83.777344 C 71.25 82.148438 71.132812 80.4375 70.980469 78.769531 L 70.980469 77.761719 C 70.789062 77.917969 70.75 79.238281 70.75 79.433594 C 70.636719 81.195312 70.40625 82.941406 70.058594 84.671875 C 69.945312 85.371094 69.867188 86.066406 69.441406 86.6875 C 69.441406 86.765625 69.441406 86.84375 69.480469 86.960938 C 70.171875 89.019531 70.359375 91.113281 70.476562 93.25 L 70.476562 94.027344 C 70.476562 94.957031 70.4375 94.761719 71.203125 95.074219 C 71.511719 95.191406 71.851562 95.230469 72.160156 95.460938 C 72.390625 95.460938 72.429688 95.269531 72.429688 95.113281 L 72.316406 93.832031 L 72.316406 90.261719 C 72.277344 89.636719 72.390625 89.019531 72.46875 88.433594 Z M 72.472656 88.433594 " fill-opacity="1" fill-rule="nonzero"/></g></svg>