<svg xmlns="http://www.w3.org/2000/svg" xmlns:xlink="http://www.w3.org/1999/xlink" width="189" zoomAndPan="magnify" viewBox="0 0 141.75 141.750002" height="189" preserveAspectRatio="xMidYMid meet" version="1.0"><defs><clipPath id="id1"><path d="M 0 19.3125 L 141.5 19.3125 L 141.5 122.0625 L 0 122.0625 Z M 0 19.3125 " clip-rule="nonzero"/></clipPath><clipPath id="id2"><path d="M 21 37 L 53.347656 37 L 53.347656 70.925781 L 21 70.925781 Z M 21 37 " clip-rule="nonzero"/></clipPath><clipPath id="id3"><path d="M 15.847656 65 L 22 65 L 22 70.925781 L 15.847656 70.925781 Z M 15.847656 65 " clip-rule="nonzero"/></clipPath><clipPath id="id4"><path d="M 47 26.675781 L 53.347656 26.675781 L 53.347656 34 L 47 34 Z M 47 26.675781 " clip-rule="nonzero"/></clipPath><clipPath id="id5"><path d="M 108.640625 42 L 126 42 L 126 62.1875 L 108.640625 62.1875 Z M 108.640625 42 " clip-rule="nonzero"/></clipPath><clipPath id="id6"><path d="M 108.640625 44 L 114 44 L 114 50 L 108.640625 50 Z M 108.640625 44 " clip-rule="nonzero"/></clipPath><clipPath id="id7"><path d="M 103.492188 72.777344 L 124 72.777344 L 124 96 L 103.492188 96 Z M 103.492188 72.777344 " clip-rule="nonzero"/></clipPath><clipPath id="id8"><path d="M 121.179688 79 L 128.191406 79 L 128.191406 86 L 121.179688 86 Z M 121.179688 79 " clip-rule="nonzero"/></clipPath><clipPath id="id9"><path d="M 26 83.46875 L 41.480469 83.46875 L 41.480469 97 L 26 97 Z M 26 83.46875 " clip-rule="nonzero"/></clipPath><clipPath id="id10"><path d="M 24.230469 86 L 32 86 L 32 95 L 24.230469 95 Z M 24.230469 86 " clip-rule="nonzero"/></clipPath><clipPath id="id11"><path d="M 35.195312 97.621094 L 38.324219 97.621094 L 38.324219 100.527344 L 35.195312 100.527344 Z M 35.195312 97.621094 " clip-rule="nonzero"/></clipPath><clipPath id="id12"><path d="M 33.195312 37.679688 L 108 37.679688 L 108 64.679688 L 33.195312 64.679688 Z M 33.195312 37.679688 " clip-rule="nonzero"/></clipPath><clipPath id="id13"><path d="M 52 47 L 102 47 L 102 64.679688 L 52 64.679688 Z M 52 47 " clip-rule="nonzero"/></clipPath><clipPath id="id14"><path d="M 52.289062 66 L 89.789062 66 L 89.789062 107.890625 L 52.289062 107.890625 Z M 52.289062 66 " clip-rule="nonzero"/></clipPath></defs><g clip-path="url(#id1)"><path fill="rgb(35.289001%, 20.779419%, 52.938843%)" d="M 6.152344 87.003906 C 6.152344 86.710938 6.203125 86.464844 6.203125 86.167969 C 6.253906 85.429688 6.253906 85.476562 7.09375 85.132812 C 7.292969 85.082031 7.339844 84.738281 7.488281 84.589844 C 8.28125 83.703125 9.074219 82.816406 10.113281 81.632812 L 9.371094 79.167969 L 3.730469 77.6875 L 5.855469 76.308594 C 5.164062 75.417969 4.371094 74.777344 5.660156 73.742188 C 6.203125 73.300781 6.402344 71.96875 5.855469 70.6875 L 4.570312 73.988281 L 0.808594 71.917969 L 2.046875 71.375 L 2.640625 72.117188 L 3.433594 71.179688 L 4.175781 71.769531 C 3.828125 70.488281 3.183594 70.488281 2.097656 71.425781 C 1.898438 71.179688 1.699219 70.933594 1.601562 70.6875 C 1.253906 70.191406 1.007812 69.699219 0.808594 69.15625 C 0.710938 68.566406 0.660156 68.023438 0.710938 67.433594 L 1.007812 67.433594 L 1.75 68.515625 L 2.394531 67.234375 L 0.5625 66.398438 L 1.355469 66.101562 C 0.316406 65.359375 0.117188 63.929688 0.859375 62.945312 C 1.007812 62.75 1.15625 62.601562 1.304688 62.5 C 1.699219 62.207031 1.996094 61.761719 2.34375 61.417969 C 2.691406 61.070312 2.988281 60.53125 3.730469 61.023438 C 3.878906 61.121094 4.570312 60.875 4.71875 60.578125 C 5.363281 59.445312 6.449219 59.199219 7.539062 59.097656 C 8.28125 59.148438 8.925781 58.65625 9.074219 57.917969 C 9.371094 56.832031 9.714844 55.746094 10.011719 54.664062 C 11.25 49.929688 14.070312 46.082031 17.386719 42.535156 C 19.5625 40.167969 21.988281 38.046875 24.3125 35.828125 C 22.878906 34.101562 23.523438 32.328125 25.945312 31.882812 C 25.898438 31.636719 25.898438 31.339844 25.898438 31.390625 C 26.738281 31.191406 27.429688 31.046875 28.074219 30.847656 C 30.101562 30.257812 32.082031 29.417969 34.160156 29.074219 C 37.625 28.53125 40.988281 27.25 43.90625 25.324219 C 46.777344 23.453125 50.042969 22.761719 53.210938 21.726562 C 56.773438 20.542969 60.535156 20.347656 64.195312 20.050781 C 68.203125 19.65625 72.160156 19.410156 76.070312 19.359375 C 79.039062 19.3125 82.058594 19.707031 85.074219 19.902344 C 86.855469 20 88.640625 20.199219 90.421875 20.347656 C 90.617188 20.347656 90.867188 20.148438 91.0625 20.148438 C 91.707031 20.101562 92.398438 20.101562 93.042969 20.148438 C 93.882812 20.246094 94.675781 20.542969 95.515625 20.742188 C 95.714844 20.789062 96.011719 20.839844 96.0625 20.742188 C 96.851562 19.605469 97.445312 20.445312 98.089844 20.9375 C 98.386719 21.183594 98.929688 21.035156 99.277344 21.234375 C 99.921875 21.480469 100.515625 21.875 101.007812 22.417969 C 101.601562 23.207031 102.34375 23.796875 103.234375 24.191406 C 106.996094 25.96875 110.609375 27.988281 114.320312 29.960938 C 115.257812 30.453125 116 31.046875 117.238281 30.75 C 118.375 30.601562 119.5625 30.652344 120.652344 30.945312 C 121.496094 31.09375 121.941406 30.847656 122.1875 30.058594 C 122.582031 30.503906 123.078125 30.898438 123.621094 31.191406 C 123.871094 31.292969 124.363281 30.898438 124.710938 30.699219 C 124.957031 30.996094 125.207031 31.539062 125.402344 31.539062 C 127.183594 31.539062 128.175781 32.722656 128.867188 33.707031 C 128.769531 34.25 128.769531 34.84375 128.816406 35.382812 C 129.015625 36.273438 129.3125 37.109375 129.609375 37.949219 C 129.609375 38.046875 129.660156 38.097656 129.660156 38.195312 C 129.015625 39.476562 130.152344 40.5625 130.054688 41.746094 C 129.90625 42.238281 129.707031 42.679688 129.460938 43.125 C 129.558594 43.421875 129.957031 43.914062 129.957031 44.40625 C 129.90625 45.589844 130.597656 45.640625 131.09375 45.640625 C 132.230469 47.90625 133.074219 50.226562 134.507812 52.148438 C 135.449219 53.429688 135.894531 54.859375 136.636719 56.140625 C 137.921875 58.410156 139.058594 60.777344 140.050781 63.191406 C 140.742188 64.769531 140.988281 66.542969 141.386719 68.222656 C 141.484375 68.566406 141.535156 68.960938 141.632812 69.402344 C 141.039062 69.699219 140.792969 70.046875 141.136719 70.933594 C 141.484375 71.96875 141.535156 73.101562 141.335938 74.1875 C 141.039062 76.109375 140.445312 77.984375 140 79.90625 C 139.949219 80.25 139.902344 80.597656 139.902344 80.941406 C 139.949219 81.238281 139.902344 81.582031 139.800781 81.878906 C 138.761719 83.851562 137.625 85.773438 136.585938 87.695312 C 136.339844 88.1875 136.089844 88.632812 135.792969 89.125 C 134.507812 90.753906 133.222656 92.378906 131.933594 94.007812 C 131.042969 95.140625 130.054688 96.273438 129.066406 97.308594 C 127.925781 98.394531 126.789062 99.382812 125.550781 100.316406 C 122.878906 102.386719 120.355469 104.65625 117.484375 106.480469 C 114.417969 108.355469 111.25 110.03125 107.9375 111.410156 C 103.285156 113.382812 98.535156 115.207031 93.734375 116.734375 C 91.707031 117.378906 89.777344 118.3125 87.550781 118.460938 C 85.519531 118.609375 83.589844 119.546875 81.613281 120.089844 C 81.214844 120.1875 80.769531 120.679688 80.472656 119.941406 C 80.425781 119.84375 80.128906 119.84375 79.929688 119.890625 C 77.851562 120.335938 75.722656 120.730469 73.644531 121.222656 C 73.199219 121.320312 72.804688 121.765625 72.410156 122.0625 C 72.160156 121.222656 71.566406 120.976562 70.628906 120.976562 C 67.363281 121.074219 64.097656 121.222656 60.832031 120.976562 C 57.316406 120.632812 53.804688 120.089844 50.339844 119.398438 C 48.609375 119.101562 46.976562 118.460938 45.292969 117.96875 C 44.945312 117.820312 44.601562 117.773438 44.253906 117.820312 C 42.917969 118.265625 42.125 117.378906 41.136719 116.6875 C 39.949219 115.847656 38.5625 115.257812 37.277344 114.46875 C 35.199219 113.1875 33.023438 111.953125 31.042969 110.523438 C 29.757812 109.585938 28.421875 109.980469 27.183594 110.03125 C 25.648438 110.082031 24.214844 110.128906 22.878906 109.191406 C 22.679688 109.042969 22.632812 108.648438 22.484375 108.402344 C 22.285156 108.058594 22.085938 107.714844 21.886719 107.367188 L 23.175781 105.148438 L 22.929688 104.953125 L 21.441406 105.644531 C 21.492188 104.753906 21.738281 103.964844 21.492188 103.472656 C 20.996094 102.488281 21.144531 100.957031 19.511719 100.761719 C 19.363281 100.761719 19.316406 100.171875 19.214844 99.875 C 18.175781 100.316406 17.1875 100.8125 16.148438 101.15625 C 15.652344 101.207031 15.109375 101.207031 14.613281 101.058594 C 14.269531 101.058594 13.921875 101.007812 13.574219 100.910156 C 12.636719 100.5625 11.695312 100.171875 10.753906 99.777344 C 10.65625 99.726562 10.605469 99.578125 10.605469 99.480469 C 11.152344 97.902344 9.816406 97.113281 9.519531 96.027344 C 9.566406 95.289062 9.816406 94.449219 9.566406 93.859375 C 9.171875 93.019531 8.28125 92.625 7.390625 92.871094 L 8.527344 92.183594 L 7.886719 91.046875 C 8.035156 90.800781 8.183594 90.605469 8.28125 90.359375 C 8.675781 89.273438 8.183594 87.546875 7.242188 86.90625 C 6.945312 86.808594 6.5 86.957031 6.152344 87.003906 Z M 65.183594 117.722656 C 65.234375 117.476562 65.285156 117.230469 65.285156 116.933594 C 65.234375 116.6875 64.988281 116.488281 64.886719 116.242188 C 64.640625 115.503906 62.808594 114.371094 62.414062 114.863281 C 61.472656 115.949219 60.535156 115.652344 59.445312 115.40625 C 59.246094 115.40625 59.050781 115.40625 58.851562 115.503906 C 57.417969 115.898438 55.980469 116.292969 54.597656 116.734375 C 54.941406 117.671875 61.96875 118.511719 65.183594 117.722656 Z M 109.421875 31.242188 L 109.570312 30.601562 C 107.6875 29.8125 105.859375 28.976562 103.929688 28.234375 C 103.53125 28.085938 102.988281 28.234375 102.246094 28.234375 C 102.742188 28.726562 103.085938 28.976562 103.039062 29.121094 C 102.542969 30.800781 103.78125 30.75 104.769531 30.847656 C 105.660156 30.996094 106.550781 31.046875 107.390625 31.09375 C 108.132812 31.144531 108.777344 31.191406 109.421875 31.242188 Z M 18.425781 45.886719 L 18.722656 46.28125 C 19.167969 46.035156 19.613281 45.789062 20.058594 45.539062 C 21.148438 44.898438 22.1875 44.160156 23.273438 43.570312 C 24.808594 42.78125 25.203125 41.84375 24.5625 40.019531 Z M 39.703125 112.347656 L 40.046875 112.152344 C 40 111.855469 40 111.363281 39.898438 111.363281 C 39.007812 111.164062 38.910156 110.425781 38.8125 109.832031 L 35.546875 109.539062 L 35.347656 109.882812 Z M 14.121094 55.351562 L 13.773438 55.203125 L 12.734375 57.324219 C 14.121094 57.667969 14.269531 57.421875 14.121094 55.351562 Z M 26.984375 39.773438 L 26.738281 39.625 C 26.492188 40.019531 26.242188 40.414062 26.09375 40.855469 C 26.046875 40.957031 26.589844 41.203125 26.984375 41.496094 Z M 6.152344 87.003906 C 5.90625 87.105469 5.558594 87.105469 5.460938 87.300781 C 5.3125 87.648438 5.164062 87.992188 5.113281 88.335938 L 5.90625 90.359375 L 6.945312 90.160156 L 5.757812 89.078125 L 6.597656 88.4375 C 6.351562 88.1875 6.152344 87.894531 5.957031 87.597656 C 5.90625 87.449219 6.054688 87.203125 6.152344 87.003906 C 6.152344 86.957031 6.152344 87.003906 6.152344 87.003906 Z M 6.152344 87.003906 " fill-opacity="1" fill-rule="nonzero"/></g><g clip-path="url(#id2)"><path fill="rgb(93.728638%, 58.039856%, 79.219055%)" d="M 104.132812 78.59375 C 68.636719 81.875 65.984375 84.535156 62.71875 120.183594 C 59.449219 84.535156 56.800781 81.875 21.300781 78.59375 C 56.800781 75.3125 59.449219 72.652344 62.71875 37.003906 C 65.984375 72.652344 68.636719 75.3125 104.132812 78.59375 " fill-opacity="1" fill-rule="nonzero"/></g><path fill="rgb(93.728638%, 58.039856%, 79.219055%)" d="M 43.832031 50.546875 C 35.761719 51.292969 35.160156 51.898438 34.414062 60.003906 C 33.671875 51.898438 33.070312 51.292969 25 50.546875 C 33.070312 49.800781 33.671875 49.195312 34.414062 41.089844 C 35.160156 49.195312 35.761719 49.800781 43.832031 50.546875 " fill-opacity="1" fill-rule="nonzero"/><g clip-path="url(#id3)"><path fill="rgb(93.728638%, 58.039856%, 79.219055%)" d="M 21.300781 68.425781 C 18.546875 68.683594 18.339844 68.886719 18.085938 71.65625 C 17.832031 68.886719 17.625 68.683594 14.871094 68.425781 C 17.625 68.171875 17.832031 67.964844 18.085938 65.195312 C 18.339844 67.964844 18.546875 68.171875 21.300781 68.425781 " fill-opacity="1" fill-rule="nonzero"/></g><g clip-path="url(#id4)"><path fill="rgb(93.728638%, 58.039856%, 79.219055%)" d="M 53.945312 29.910156 C 51.1875 30.164062 50.980469 30.371094 50.726562 33.140625 C 50.472656 30.371094 50.269531 30.164062 47.511719 29.910156 C 50.269531 29.65625 50.472656 29.449219 50.726562 26.679688 C 50.980469 29.449219 51.1875 29.65625 53.945312 29.910156 " fill-opacity="1" fill-rule="nonzero"/></g><g clip-path="url(#id5)"><path fill="rgb(93.728638%, 58.039856%, 79.219055%)" d="M 125.566406 67.621094 C 103.828125 69.625 102.203125 71.25 100.203125 93.007812 C 98.203125 71.25 96.582031 69.625 74.839844 67.621094 C 96.582031 65.621094 98.203125 63.996094 100.203125 42.238281 C 102.203125 63.996094 103.828125 65.621094 125.566406 67.621094 " fill-opacity="1" fill-rule="nonzero"/></g><path fill="rgb(93.728638%, 58.039856%, 79.219055%)" d="M 123.550781 42.761719 C 121.863281 42.917969 121.738281 43.042969 121.582031 44.734375 C 121.425781 43.042969 121.300781 42.917969 119.609375 42.761719 C 121.300781 42.605469 121.425781 42.480469 121.582031 40.789062 C 121.738281 42.480469 121.863281 42.605469 123.550781 42.761719 " fill-opacity="1" fill-rule="nonzero"/><g clip-path="url(#id6)"><path fill="rgb(93.728638%, 58.039856%, 79.219055%)" d="M 113.519531 46.925781 C 111.296875 47.132812 111.132812 47.296875 110.925781 49.523438 C 110.722656 47.296875 110.554688 47.132812 108.332031 46.925781 C 110.554688 46.722656 110.722656 46.554688 110.925781 44.332031 C 111.132812 46.554688 111.296875 46.722656 113.519531 46.925781 " fill-opacity="1" fill-rule="nonzero"/></g><path fill="rgb(93.728638%, 58.039856%, 79.219055%)" d="M 124.902344 56.816406 C 121.785156 57.105469 121.550781 57.335938 121.265625 60.457031 C 120.976562 57.335938 120.746094 57.105469 117.625 56.816406 C 120.746094 56.53125 120.976562 56.296875 121.265625 53.175781 C 121.550781 56.296875 121.785156 56.53125 124.902344 56.816406 " fill-opacity="1" fill-rule="nonzero"/><g clip-path="url(#id7)"><path fill="rgb(93.728638%, 58.039856%, 79.219055%)" d="M 123.375 69.066406 C 100.535156 71.164062 98.832031 72.867188 96.730469 95.675781 C 94.625 72.867188 92.921875 71.164062 70.082031 69.066406 C 92.921875 66.96875 94.625 65.265625 96.730469 42.457031 C 98.832031 65.265625 100.535156 66.96875 123.375 69.066406 " fill-opacity="1" fill-rule="nonzero"/></g><g clip-path="url(#id8)"><path fill="rgb(93.728638%, 58.039856%, 79.219055%)" d="M 128.195312 82.492188 C 125.222656 82.765625 125 82.984375 124.726562 85.953125 C 124.453125 82.984375 124.230469 82.765625 121.257812 82.492188 C 124.230469 82.21875 124.453125 81.996094 124.726562 79.027344 C 125 81.996094 125.222656 82.21875 128.195312 82.492188 " fill-opacity="1" fill-rule="nonzero"/></g><path fill="rgb(93.728638%, 58.039856%, 79.219055%)" d="M 112.132812 80.425781 C 110.359375 80.585938 110.226562 80.71875 110.0625 82.492188 C 109.902344 80.71875 109.769531 80.585938 107.996094 80.425781 C 109.769531 80.261719 109.902344 80.128906 110.0625 78.359375 C 110.226562 80.128906 110.359375 80.261719 112.132812 80.425781 " fill-opacity="1" fill-rule="nonzero"/><path fill="rgb(93.728638%, 58.039856%, 79.219055%)" d="M 118.359375 94.960938 C 115.160156 95.253906 114.921875 95.492188 114.625 98.6875 C 114.332031 95.492188 114.09375 95.253906 110.894531 94.960938 C 114.09375 94.667969 114.332031 94.429688 114.625 91.234375 C 114.921875 94.429688 115.160156 94.667969 118.359375 94.960938 " fill-opacity="1" fill-rule="nonzero"/><g clip-path="url(#id9)"><path fill="rgb(93.728638%, 58.039856%, 79.219055%)" d="M 64.617188 78.0625 C 48.378906 79.535156 47.167969 80.726562 45.671875 96.714844 C 44.179688 80.726562 42.96875 79.535156 26.730469 78.0625 C 42.96875 76.589844 44.179688 75.398438 45.671875 59.410156 C 47.167969 75.398438 48.378906 76.589844 64.617188 78.0625 " fill-opacity="1" fill-rule="nonzero"/></g><g clip-path="url(#id10)"><path fill="rgb(93.728638%, 58.039856%, 79.219055%)" d="M 31.789062 90.25 C 28.507812 90.546875 28.261719 90.789062 27.960938 94.015625 C 27.660156 90.789062 27.414062 90.546875 24.132812 90.25 C 27.414062 89.953125 27.660156 89.710938 27.960938 86.480469 C 28.261719 89.710938 28.507812 89.953125 31.789062 90.25 " fill-opacity="1" fill-rule="nonzero"/></g><g clip-path="url(#id11)"><path fill="rgb(93.728638%, 58.039856%, 79.219055%)" d="M 38.230469 99.078125 C 36.96875 99.191406 36.875 99.285156 36.757812 100.527344 C 36.640625 99.285156 36.546875 99.191406 35.285156 99.078125 C 36.546875 98.964844 36.640625 98.871094 36.757812 97.628906 C 36.875 98.871094 36.96875 98.964844 38.230469 99.078125 " fill-opacity="1" fill-rule="nonzero"/></g><path fill="rgb(93.728638%, 58.039856%, 79.219055%)" d="M 37.691406 86.027344 C 36.429688 86.140625 36.335938 86.234375 36.21875 87.476562 C 36.101562 86.234375 36.007812 86.140625 34.75 86.027344 C 36.007812 85.910156 36.101562 85.820312 36.21875 84.578125 C 36.335938 85.820312 36.429688 85.910156 37.691406 86.027344 " fill-opacity="1" fill-rule="nonzero"/><g clip-path="url(#id12)"><path fill="rgb(100%, 100%, 100%)" d="M 82.898438 37.867188 C 82.828125 37.867188 82.761719 37.882812 82.703125 37.917969 C 82.570312 37.996094 82.503906 38.109375 82.503906 38.261719 L 82.503906 48.382812 C 82.503906 48.484375 82.457031 48.570312 82.371094 48.621094 C 82.28125 48.675781 82.1875 48.675781 82.09375 48.621094 L 80.445312 47.667969 C 80.179688 47.515625 79.917969 47.515625 79.652344 47.667969 L 73.070312 51.480469 C 72.824219 51.621094 72.671875 51.894531 72.671875 52.179688 L 72.671875 59.800781 C 72.671875 60.105469 72.804688 60.335938 73.070312 60.488281 L 79.652344 64.296875 C 79.917969 64.453125 80.183594 64.453125 80.445312 64.296875 L 87.03125 60.488281 C 87.296875 60.335938 87.425781 60.105469 87.425781 59.800781 L 87.425781 40.800781 C 87.425781 40.511719 87.269531 40.242188 87.019531 40.101562 L 83.097656 37.902344 C 83.035156 37.871094 82.96875 37.863281 82.898438 37.863281 Z M 40.539062 47.378906 C 40.410156 47.382812 40.292969 47.40625 40.179688 47.46875 L 33.597656 51.28125 C 33.332031 51.433594 33.199219 51.664062 33.199219 51.96875 L 33.214844 62.195312 C 33.214844 62.335938 33.289062 62.46875 33.410156 62.539062 C 33.535156 62.613281 33.6875 62.613281 33.808594 62.539062 L 37.714844 60.289062 C 37.960938 60.144531 38.121094 59.886719 38.121094 59.601562 L 38.121094 54.824219 C 38.121094 54.539062 38.273438 54.28125 38.519531 54.136719 L 40.183594 53.171875 C 40.304688 53.101562 40.4375 53.066406 40.578125 53.066406 C 40.71875 53.066406 40.851562 53.101562 40.972656 53.171875 L 42.636719 54.136719 C 42.882812 54.277344 43.03125 54.539062 43.03125 54.824219 L 43.03125 59.601562 C 43.03125 59.886719 43.195312 60.144531 43.441406 60.289062 L 47.347656 62.539062 C 47.46875 62.613281 47.621094 62.613281 47.742188 62.539062 C 47.863281 62.46875 47.941406 62.335938 47.941406 62.195312 L 47.953125 51.96875 C 47.957031 51.660156 47.824219 51.429688 47.558594 51.28125 L 40.972656 47.472656 C 40.863281 47.40625 40.742188 47.382812 40.617188 47.378906 Z M 99.710938 47.46875 C 99.570312 47.46875 99.4375 47.503906 99.316406 47.574219 L 92.730469 51.386719 C 92.484375 51.527344 92.335938 51.789062 92.335938 52.074219 L 92.335938 59.695312 C 92.335938 59.980469 92.496094 60.242188 92.742188 60.382812 L 99.277344 64.113281 C 99.515625 64.253906 99.8125 64.261719 100.054688 64.128906 L 104.015625 61.917969 C 104.140625 61.847656 104.222656 61.71875 104.226562 61.574219 C 104.226562 61.429688 104.152344 61.300781 104.027344 61.230469 L 97.402344 57.421875 C 97.277344 57.347656 97.191406 57.207031 97.191406 57.0625 L 97.191406 54.679688 C 97.191406 54.539062 97.277344 54.40625 97.402344 54.335938 L 99.460938 53.144531 C 99.582031 53.074219 99.734375 53.074219 99.855469 53.144531 L 101.921875 54.335938 C 102.050781 54.414062 102.117188 54.527344 102.117188 54.679688 L 102.117188 56.558594 C 102.117188 56.710938 102.183594 56.828125 102.316406 56.902344 C 102.4375 56.972656 102.589844 56.972656 102.710938 56.902344 L 106.65625 54.601562 C 106.902344 54.457031 107.054688 54.195312 107.054688 53.914062 L 107.054688 52.074219 C 107.054688 51.769531 106.921875 51.539062 106.65625 51.386719 L 100.113281 47.574219 C 99.988281 47.503906 99.855469 47.46875 99.714844 47.46875 Z M 80.023438 53.160156 C 80.058594 53.160156 80.09375 53.167969 80.128906 53.1875 L 82.382812 54.496094 C 82.445312 54.53125 82.488281 54.597656 82.488281 54.667969 L 82.488281 57.285156 C 82.488281 57.359375 82.445312 57.421875 82.382812 57.457031 L 80.128906 58.769531 C 80.066406 58.804688 79.992188 58.804688 79.929688 58.769531 L 77.671875 57.457031 C 77.613281 57.421875 77.566406 57.359375 77.566406 57.285156 L 77.566406 54.667969 C 77.566406 54.597656 77.613281 54.53125 77.671875 54.496094 L 79.929688 53.1875 C 79.960938 53.167969 79.988281 53.160156 80.023438 53.160156 Z M 80.023438 53.160156 " fill-opacity="1" fill-rule="nonzero"/></g><g clip-path="url(#id13)"><path fill="rgb(51.368713%, 80.389404%, 16.079712%)" d="M 60.320312 47.429688 C 60.179688 47.429688 60.046875 47.464844 59.921875 47.535156 L 53.339844 51.332031 C 53.09375 51.476562 52.941406 51.75 52.941406 52.035156 L 52.941406 59.65625 C 52.941406 59.960938 53.074219 60.191406 53.339844 60.34375 L 59.921875 64.152344 C 60.1875 64.304688 60.449219 64.304688 60.714844 64.152344 L 67.300781 60.34375 C 67.566406 60.191406 67.695312 59.960938 67.695312 59.65625 L 67.695312 52.035156 C 67.695312 51.75 67.546875 51.476562 67.300781 51.332031 L 60.714844 47.535156 C 60.59375 47.464844 60.460938 47.429688 60.320312 47.429688 Z M 99.699219 54.230469 C 99.671875 54.230469 99.644531 54.230469 99.621094 54.242188 L 98.351562 54.984375 C 98.300781 55.011719 98.273438 55.058594 98.273438 55.117188 L 98.273438 56.570312 C 98.273438 56.625 98.304688 56.675781 98.351562 56.703125 L 99.621094 57.433594 C 99.667969 57.460938 99.714844 57.460938 99.765625 57.433594 L 101.03125 56.703125 C 101.078125 56.675781 101.109375 56.625 101.109375 56.570312 L 101.109375 55.117188 C 101.109375 55.0625 101.078125 55.011719 101.03125 54.984375 L 99.765625 54.242188 C 99.742188 54.230469 99.726562 54.230469 99.699219 54.230469 Z M 99.699219 54.230469 " fill-opacity="1" fill-rule="nonzero"/></g><g clip-path="url(#id14)"><path fill="rgb(51.368713%, 80.389404%, 16.079712%)" d="M 71.039062 107.882812 C 70.457031 107.882812 69.914062 107.730469 69.414062 107.460938 L 64.265625 104.421875 C 63.492188 104 63.878906 103.847656 64.109375 103.769531 C 65.15625 103.421875 65.347656 103.347656 66.433594 102.730469 C 66.546875 102.652344 66.703125 102.691406 66.820312 102.769531 L 70.765625 105.113281 C 70.921875 105.191406 71.117188 105.191406 71.234375 105.113281 L 86.675781 96.230469 C 86.828125 96.15625 86.90625 96 86.90625 95.808594 L 86.90625 78.078125 C 86.90625 77.886719 86.828125 77.730469 86.675781 77.65625 L 71.234375 68.808594 C 71.078125 68.730469 70.882812 68.730469 70.765625 68.808594 L 55.324219 77.65625 C 55.167969 77.730469 55.089844 77.925781 55.089844 78.078125 L 55.089844 95.808594 C 55.089844 95.960938 55.167969 96.15625 55.324219 96.230469 L 59.542969 98.652344 C 61.828125 99.808594 63.257812 98.460938 63.257812 97.117188 L 63.257812 79.617188 C 63.257812 79.386719 63.453125 79.15625 63.722656 79.15625 L 65.695312 79.15625 C 65.929688 79.15625 66.160156 79.347656 66.160156 79.617188 L 66.160156 97.117188 C 66.160156 100.15625 64.496094 101.921875 61.59375 101.921875 C 60.703125 101.921875 60.007812 101.921875 58.035156 100.960938 L 53.96875 98.652344 C 52.960938 98.078125 52.34375 97 52.34375 95.847656 L 52.34375 78.117188 C 52.34375 76.960938 52.960938 75.886719 53.96875 75.308594 L 69.414062 66.425781 C 70.378906 65.886719 71.695312 65.886719 72.664062 66.425781 L 88.105469 75.308594 C 89.113281 75.886719 89.734375 76.960938 89.734375 78.117188 L 89.734375 95.847656 C 89.734375 97 89.113281 98.078125 88.105469 98.652344 L 72.664062 107.539062 C 72.160156 107.769531 71.578125 107.882812 71.039062 107.882812 Z M 75.800781 95.691406 C 69.027344 95.691406 67.632812 92.613281 67.632812 90 C 67.632812 89.769531 67.824219 89.539062 68.097656 89.539062 L 70.109375 89.539062 C 70.339844 89.539062 70.535156 89.691406 70.535156 89.921875 C 70.84375 91.960938 71.734375 92.960938 75.835938 92.960938 C 79.089844 92.960938 80.480469 92.230469 80.480469 90.5 C 80.480469 89.5 80.09375 88.769531 75.027344 88.269531 C 70.804688 87.847656 68.175781 86.921875 68.175781 83.578125 C 68.175781 80.460938 70.804688 78.617188 75.21875 78.617188 C 80.171875 78.617188 82.613281 80.308594 82.921875 84 C 82.921875 84.117188 82.882812 84.230469 82.804688 84.347656 C 82.726562 84.425781 82.613281 84.5 82.496094 84.5 L 80.480469 84.5 C 80.289062 84.5 80.09375 84.347656 80.058594 84.152344 C 79.59375 82.039062 78.390625 81.347656 75.21875 81.347656 C 71.65625 81.347656 71.234375 82.578125 71.234375 83.5 C 71.234375 84.617188 71.734375 84.960938 76.535156 85.578125 C 81.296875 86.191406 83.539062 87.078125 83.539062 90.382812 C 83.5 93.769531 80.714844 95.691406 75.800781 95.691406 Z M 75.800781 95.691406 " fill-opacity="1" fill-rule="nonzero"/></g></svg>