<svg xmlns="http://www.w3.org/2000/svg" xmlns:xlink="http://www.w3.org/1999/xlink" width="189" zoomAndPan="magnify" viewBox="0 0 141.75 141.750002" height="189" preserveAspectRatio="xMidYMid meet" version="1.0"><defs><clipPath id="id1"><path d="M 0 19.3125 L 141.5 19.3125 L 141.5 122.0625 L 0 122.0625 Z M 0 19.3125 " clip-rule="nonzero"/></clipPath><clipPath id="id2"><path d="M 21 37 L 53.347656 37 L 53.347656 70.925781 L 21 70.925781 Z M 21 37 " clip-rule="nonzero"/></clipPath><clipPath id="id3"><path d="M 15.847656 65 L 22 65 L 22 70.925781 L 15.847656 70.925781 Z M 15.847656 65 " clip-rule="nonzero"/></clipPath><clipPath id="id4"><path d="M 47 26.675781 L 53.347656 26.675781 L 53.347656 34 L 47 34 Z M 47 26.675781 " clip-rule="nonzero"/></clipPath><clipPath id="id5"><path d="M 108.640625 42 L 126 42 L 126 62.1875 L 108.640625 62.1875 Z M 108.640625 42 " clip-rule="nonzero"/></clipPath><clipPath id="id6"><path d="M 108.640625 44 L 114 44 L 114 50 L 108.640625 50 Z M 108.640625 44 " clip-rule="nonzero"/></clipPath><clipPath id="id7"><path d="M 103.492188 72.777344 L 124 72.777344 L 124 96 L 103.492188 96 Z M 103.492188 72.777344 " clip-rule="nonzero"/></clipPath><clipPath id="id8"><path d="M 121.179688 79 L 128.191406 79 L 128.191406 86 L 121.179688 86 Z M 121.179688 79 " clip-rule="nonzero"/></clipPath><clipPath id="id9"><path d="M 26 83.46875 L 41.480469 83.46875 L 41.480469 97 L 26 97 Z M 26 83.46875 " clip-rule="nonzero"/></clipPath><clipPath id="id10"><path d="M 24.230469 86 L 32 86 L 32 95 L 24.230469 95 Z M 24.230469 86 " clip-rule="nonzero"/></clipPath><clipPath id="id11"><path d="M 35.195312 97.621094 L 38.324219 97.621094 L 38.324219 100.527344 L 35.195312 100.527344 Z M 35.195312 97.621094 " clip-rule="nonzero"/></clipPath><clipPath id="id12"><path d="M 30.136719 32 L 111 32 L 111 114.199219 L 30.136719 114.199219 Z M 30.136719 32 " clip-rule="nonzero"/></clipPath></defs><g clip-path="url(#id1)"><path fill="rgb(35.289001%, 20.779419%, 52.938843%)" d="M 6.152344 87.003906 C 6.152344 86.710938 6.203125 86.464844 6.203125 86.167969 C 6.253906 85.429688 6.253906 85.476562 7.09375 85.132812 C 7.292969 85.082031 7.339844 84.738281 7.488281 84.589844 C 8.28125 83.703125 9.074219 82.816406 10.113281 81.632812 L 9.371094 79.167969 L 3.730469 77.6875 L 5.855469 76.308594 C 5.164062 75.417969 4.371094 74.777344 5.660156 73.742188 C 6.203125 73.300781 6.402344 71.96875 5.855469 70.6875 L 4.570312 73.988281 L 0.808594 71.917969 L 2.046875 71.375 L 2.640625 72.117188 L 3.433594 71.179688 L 4.175781 71.769531 C 3.828125 70.488281 3.183594 70.488281 2.097656 71.425781 C 1.898438 71.179688 1.699219 70.933594 1.601562 70.6875 C 1.253906 70.191406 1.007812 69.699219 0.808594 69.15625 C 0.710938 68.566406 0.660156 68.023438 0.710938 67.433594 L 1.007812 67.433594 L 1.75 68.515625 L 2.394531 67.234375 L 0.5625 66.398438 L 1.355469 66.101562 C 0.316406 65.359375 0.117188 63.929688 0.859375 62.945312 C 1.007812 62.75 1.15625 62.601562 1.304688 62.5 C 1.699219 62.207031 1.996094 61.761719 2.34375 61.417969 C 2.691406 61.070312 2.988281 60.53125 3.730469 61.023438 C 3.878906 61.121094 4.570312 60.875 4.71875 60.578125 C 5.363281 59.445312 6.449219 59.199219 7.539062 59.097656 C 8.28125 59.148438 8.925781 58.65625 9.074219 57.917969 C 9.371094 56.832031 9.714844 55.746094 10.011719 54.664062 C 11.25 49.929688 14.070312 46.082031 17.386719 42.535156 C 19.5625 40.167969 21.988281 38.046875 24.3125 35.828125 C 22.878906 34.101562 23.523438 32.328125 25.945312 31.882812 C 25.898438 31.636719 25.898438 31.339844 25.898438 31.390625 C 26.738281 31.191406 27.429688 31.046875 28.074219 30.847656 C 30.101562 30.257812 32.082031 29.417969 34.160156 29.074219 C 37.625 28.53125 40.988281 27.25 43.90625 25.324219 C 46.777344 23.453125 50.042969 22.761719 53.210938 21.726562 C 56.773438 20.542969 60.535156 20.347656 64.195312 20.050781 C 68.203125 19.65625 72.160156 19.410156 76.070312 19.359375 C 79.039062 19.3125 82.058594 19.707031 85.074219 19.902344 C 86.855469 20 88.640625 20.199219 90.421875 20.347656 C 90.617188 20.347656 90.867188 20.148438 91.0625 20.148438 C 91.707031 20.101562 92.398438 20.101562 93.042969 20.148438 C 93.882812 20.246094 94.675781 20.542969 95.515625 20.742188 C 95.714844 20.789062 96.011719 20.839844 96.0625 20.742188 C 96.851562 19.605469 97.445312 20.445312 98.089844 20.9375 C 98.386719 21.183594 98.929688 21.035156 99.277344 21.234375 C 99.921875 21.480469 100.515625 21.875 101.007812 22.417969 C 101.601562 23.207031 102.34375 23.796875 103.234375 24.191406 C 106.996094 25.96875 110.609375 27.988281 114.320312 29.960938 C 115.257812 30.453125 116 31.046875 117.238281 30.75 C 118.375 30.601562 119.5625 30.652344 120.652344 30.945312 C 121.496094 31.09375 121.941406 30.847656 122.1875 30.058594 C 122.582031 30.503906 123.078125 30.898438 123.621094 31.191406 C 123.871094 31.292969 124.363281 30.898438 124.710938 30.699219 C 124.957031 30.996094 125.207031 31.539062 125.402344 31.539062 C 127.183594 31.539062 128.175781 32.722656 128.867188 33.707031 C 128.769531 34.25 128.769531 34.84375 128.816406 35.382812 C 129.015625 36.273438 129.3125 37.109375 129.609375 37.949219 C 129.609375 38.046875 129.660156 38.097656 129.660156 38.195312 C 129.015625 39.476562 130.152344 40.5625 130.054688 41.746094 C 129.90625 42.238281 129.707031 42.679688 129.460938 43.125 C 129.558594 43.421875 129.957031 43.914062 129.957031 44.40625 C 129.90625 45.589844 130.597656 45.640625 131.09375 45.640625 C 132.230469 47.90625 133.074219 50.226562 134.507812 52.148438 C 135.449219 53.429688 135.894531 54.859375 136.636719 56.140625 C 137.921875 58.410156 139.058594 60.777344 140.050781 63.191406 C 140.742188 64.769531 140.988281 66.542969 141.386719 68.222656 C 141.484375 68.566406 141.535156 68.960938 141.632812 69.402344 C 141.039062 69.699219 140.792969 70.046875 141.136719 70.933594 C 141.484375 71.96875 141.535156 73.101562 141.335938 74.1875 C 141.039062 76.109375 140.445312 77.984375 140 79.90625 C 139.949219 80.25 139.902344 80.597656 139.902344 80.941406 C 139.949219 81.238281 139.902344 81.582031 139.800781 81.878906 C 138.761719 83.851562 137.625 85.773438 136.585938 87.695312 C 136.339844 88.1875 136.089844 88.632812 135.792969 89.125 C 134.507812 90.753906 133.222656 92.378906 131.933594 94.007812 C 131.042969 95.140625 130.054688 96.273438 129.066406 97.308594 C 127.925781 98.394531 126.789062 99.382812 125.550781 100.316406 C 122.878906 102.386719 120.355469 104.65625 117.484375 106.480469 C 114.417969 108.355469 111.25 110.03125 107.9375 111.410156 C 103.285156 113.382812 98.535156 115.207031 93.734375 116.734375 C 91.707031 117.378906 89.777344 118.3125 87.550781 118.460938 C 85.519531 118.609375 83.589844 119.546875 81.613281 120.089844 C 81.214844 120.1875 80.769531 120.679688 80.472656 119.941406 C 80.425781 119.84375 80.128906 119.84375 79.929688 119.890625 C 77.851562 120.335938 75.722656 120.730469 73.644531 121.222656 C 73.199219 121.320312 72.804688 121.765625 72.410156 122.0625 C 72.160156 121.222656 71.566406 120.976562 70.628906 120.976562 C 67.363281 121.074219 64.097656 121.222656 60.832031 120.976562 C 57.316406 120.632812 53.804688 120.089844 50.339844 119.398438 C 48.609375 119.101562 46.976562 118.460938 45.292969 117.96875 C 44.945312 117.820312 44.601562 117.773438 44.253906 117.820312 C 42.917969 118.265625 42.125 117.378906 41.136719 116.6875 C 39.949219 115.847656 38.5625 115.257812 37.277344 114.46875 C 35.199219 113.1875 33.023438 111.953125 31.042969 110.523438 C 29.757812 109.585938 28.421875 109.980469 27.183594 110.03125 C 25.648438 110.082031 24.214844 110.128906 22.878906 109.191406 C 22.679688 109.042969 22.632812 108.648438 22.484375 108.402344 C 22.285156 108.058594 22.085938 107.714844 21.886719 107.367188 L 23.175781 105.148438 L 22.929688 104.953125 L 21.441406 105.644531 C 21.492188 104.753906 21.738281 103.964844 21.492188 103.472656 C 20.996094 102.488281 21.144531 100.957031 19.511719 100.761719 C 19.363281 100.761719 19.316406 100.171875 19.214844 99.875 C 18.175781 100.316406 17.1875 100.8125 16.148438 101.15625 C 15.652344 101.207031 15.109375 101.207031 14.613281 101.058594 C 14.269531 101.058594 13.921875 101.007812 13.574219 100.910156 C 12.636719 100.5625 11.695312 100.171875 10.753906 99.777344 C 10.65625 99.726562 10.605469 99.578125 10.605469 99.480469 C 11.152344 97.902344 9.816406 97.113281 9.519531 96.027344 C 9.566406 95.289062 9.816406 94.449219 9.566406 93.859375 C 9.171875 93.019531 8.28125 92.625 7.390625 92.871094 L 8.527344 92.183594 L 7.886719 91.046875 C 8.035156 90.800781 8.183594 90.605469 8.28125 90.359375 C 8.675781 89.273438 8.183594 87.546875 7.242188 86.90625 C 6.945312 86.808594 6.5 86.957031 6.152344 87.003906 Z M 65.183594 117.722656 C 65.234375 117.476562 65.285156 117.230469 65.285156 116.933594 C 65.234375 116.6875 64.988281 116.488281 64.886719 116.242188 C 64.640625 115.503906 62.808594 114.371094 62.414062 114.863281 C 61.472656 115.949219 60.535156 115.652344 59.445312 115.40625 C 59.246094 115.40625 59.050781 115.40625 58.851562 115.503906 C 57.417969 115.898438 55.980469 116.292969 54.597656 116.734375 C 54.941406 117.671875 61.96875 118.511719 65.183594 117.722656 Z M 109.421875 31.242188 L 109.570312 30.601562 C 107.6875 29.8125 105.859375 28.976562 103.929688 28.234375 C 103.53125 28.085938 102.988281 28.234375 102.246094 28.234375 C 102.742188 28.726562 103.085938 28.976562 103.039062 29.121094 C 102.542969 30.800781 103.78125 30.75 104.769531 30.847656 C 105.660156 30.996094 106.550781 31.046875 107.390625 31.09375 C 108.132812 31.144531 108.777344 31.191406 109.421875 31.242188 Z M 18.425781 45.886719 L 18.722656 46.28125 C 19.167969 46.035156 19.613281 45.789062 20.058594 45.539062 C 21.148438 44.898438 22.1875 44.160156 23.273438 43.570312 C 24.808594 42.78125 25.203125 41.84375 24.5625 40.019531 Z M 39.703125 112.347656 L 40.046875 112.152344 C 40 111.855469 40 111.363281 39.898438 111.363281 C 39.007812 111.164062 38.910156 110.425781 38.8125 109.832031 L 35.546875 109.539062 L 35.347656 109.882812 Z M 14.121094 55.351562 L 13.773438 55.203125 L 12.734375 57.324219 C 14.121094 57.667969 14.269531 57.421875 14.121094 55.351562 Z M 26.984375 39.773438 L 26.738281 39.625 C 26.492188 40.019531 26.242188 40.414062 26.09375 40.855469 C 26.046875 40.957031 26.589844 41.203125 26.984375 41.496094 Z M 6.152344 87.003906 C 5.90625 87.105469 5.558594 87.105469 5.460938 87.300781 C 5.3125 87.648438 5.164062 87.992188 5.113281 88.335938 L 5.90625 90.359375 L 6.945312 90.160156 L 5.757812 89.078125 L 6.597656 88.4375 C 6.351562 88.1875 6.152344 87.894531 5.957031 87.597656 C 5.90625 87.449219 6.054688 87.203125 6.152344 87.003906 C 6.152344 86.957031 6.152344 87.003906 6.152344 87.003906 Z M 6.152344 87.003906 " fill-opacity="1" fill-rule="nonzero"/></g><g clip-path="url(#id2)"><path fill="rgb(93.728638%, 58.039856%, 79.219055%)" d="M 104.132812 78.59375 C 68.636719 81.875 65.984375 84.535156 62.71875 120.183594 C 59.449219 84.535156 56.800781 81.875 21.300781 78.59375 C 56.800781 75.3125 59.449219 72.652344 62.71875 37.003906 C 65.984375 72.652344 68.636719 75.3125 104.132812 78.59375 " fill-opacity="1" fill-rule="nonzero"/></g><path fill="rgb(93.728638%, 58.039856%, 79.219055%)" d="M 43.832031 50.546875 C 35.761719 51.292969 35.160156 51.898438 34.414062 60.003906 C 33.671875 51.898438 33.070312 51.292969 25 50.546875 C 33.070312 49.800781 33.671875 49.195312 34.414062 41.089844 C 35.160156 49.195312 35.761719 49.800781 43.832031 50.546875 " fill-opacity="1" fill-rule="nonzero"/><g clip-path="url(#id3)"><path fill="rgb(93.728638%, 58.039856%, 79.219055%)" d="M 21.300781 68.425781 C 18.546875 68.683594 18.339844 68.886719 18.085938 71.65625 C 17.832031 68.886719 17.625 68.683594 14.871094 68.425781 C 17.625 68.171875 17.832031 67.964844 18.085938 65.195312 C 18.339844 67.964844 18.546875 68.171875 21.300781 68.425781 " fill-opacity="1" fill-rule="nonzero"/></g><g clip-path="url(#id4)"><path fill="rgb(93.728638%, 58.039856%, 79.219055%)" d="M 53.945312 29.910156 C 51.1875 30.164062 50.980469 30.371094 50.726562 33.140625 C 50.472656 30.371094 50.269531 30.164062 47.511719 29.910156 C 50.269531 29.65625 50.472656 29.449219 50.726562 26.679688 C 50.980469 29.449219 51.1875 29.65625 53.945312 29.910156 " fill-opacity="1" fill-rule="nonzero"/></g><g clip-path="url(#id5)"><path fill="rgb(93.728638%, 58.039856%, 79.219055%)" d="M 125.566406 67.621094 C 103.828125 69.625 102.203125 71.25 100.203125 93.007812 C 98.203125 71.25 96.582031 69.625 74.839844 67.621094 C 96.582031 65.621094 98.203125 63.996094 100.203125 42.238281 C 102.203125 63.996094 103.828125 65.621094 125.566406 67.621094 " fill-opacity="1" fill-rule="nonzero"/></g><path fill="rgb(93.728638%, 58.039856%, 79.219055%)" d="M 123.550781 42.761719 C 121.863281 42.917969 121.738281 43.042969 121.582031 44.734375 C 121.425781 43.042969 121.300781 42.917969 119.609375 42.761719 C 121.300781 42.605469 121.425781 42.480469 121.582031 40.789062 C 121.738281 42.480469 121.863281 42.605469 123.550781 42.761719 " fill-opacity="1" fill-rule="nonzero"/><g clip-path="url(#id6)"><path fill="rgb(93.728638%, 58.039856%, 79.219055%)" d="M 113.519531 46.925781 C 111.296875 47.132812 111.132812 47.296875 110.925781 49.523438 C 110.722656 47.296875 110.554688 47.132812 108.332031 46.925781 C 110.554688 46.722656 110.722656 46.554688 110.925781 44.332031 C 111.132812 46.554688 111.296875 46.722656 113.519531 46.925781 " fill-opacity="1" fill-rule="nonzero"/></g><path fill="rgb(93.728638%, 58.039856%, 79.219055%)" d="M 124.902344 56.816406 C 121.785156 57.105469 121.550781 57.335938 121.265625 60.457031 C 120.976562 57.335938 120.746094 57.105469 117.625 56.816406 C 120.746094 56.53125 120.976562 56.296875 121.265625 53.175781 C 121.550781 56.296875 121.785156 56.53125 124.902344 56.816406 " fill-opacity="1" fill-rule="nonzero"/><g clip-path="url(#id7)"><path fill="rgb(93.728638%, 58.039856%, 79.219055%)" d="M 123.375 69.066406 C 100.535156 71.164062 98.832031 72.867188 96.730469 95.675781 C 94.625 72.867188 92.921875 71.164062 70.082031 69.066406 C 92.921875 66.96875 94.625 65.265625 96.730469 42.457031 C 98.832031 65.265625 100.535156 66.96875 123.375 69.066406 " fill-opacity="1" fill-rule="nonzero"/></g><g clip-path="url(#id8)"><path fill="rgb(93.728638%, 58.039856%, 79.219055%)" d="M 128.195312 82.492188 C 125.222656 82.765625 125 82.984375 124.726562 85.953125 C 124.453125 82.984375 124.230469 82.765625 121.257812 82.492188 C 124.230469 82.21875 124.453125 81.996094 124.726562 79.027344 C 125 81.996094 125.222656 82.21875 128.195312 82.492188 " fill-opacity="1" fill-rule="nonzero"/></g><path fill="rgb(93.728638%, 58.039856%, 79.219055%)" d="M 112.132812 80.425781 C 110.359375 80.585938 110.226562 80.71875 110.0625 82.492188 C 109.902344 80.71875 109.769531 80.585938 107.996094 80.425781 C 109.769531 80.261719 109.902344 80.128906 110.0625 78.359375 C 110.226562 80.128906 110.359375 80.261719 112.132812 80.425781 " fill-opacity="1" fill-rule="nonzero"/><path fill="rgb(93.728638%, 58.039856%, 79.219055%)" d="M 118.359375 94.960938 C 115.160156 95.253906 114.921875 95.492188 114.625 98.6875 C 114.332031 95.492188 114.09375 95.253906 110.894531 94.960938 C 114.09375 94.667969 114.332031 94.429688 114.625 91.234375 C 114.921875 94.429688 115.160156 94.667969 118.359375 94.960938 " fill-opacity="1" fill-rule="nonzero"/><g clip-path="url(#id9)"><path fill="rgb(93.728638%, 58.039856%, 79.219055%)" d="M 64.617188 78.0625 C 48.378906 79.535156 47.167969 80.726562 45.671875 96.714844 C 44.179688 80.726562 42.96875 79.535156 26.730469 78.0625 C 42.96875 76.589844 44.179688 75.398438 45.671875 59.410156 C 47.167969 75.398438 48.378906 76.589844 64.617188 78.0625 " fill-opacity="1" fill-rule="nonzero"/></g><g clip-path="url(#id10)"><path fill="rgb(93.728638%, 58.039856%, 79.219055%)" d="M 31.789062 90.25 C 28.507812 90.546875 28.261719 90.789062 27.960938 94.015625 C 27.660156 90.789062 27.414062 90.546875 24.132812 90.25 C 27.414062 89.953125 27.660156 89.710938 27.960938 86.480469 C 28.261719 89.710938 28.507812 89.953125 31.789062 90.25 " fill-opacity="1" fill-rule="nonzero"/></g><g clip-path="url(#id11)"><path fill="rgb(93.728638%, 58.039856%, 79.219055%)" d="M 38.230469 99.078125 C 36.96875 99.191406 36.875 99.285156 36.757812 100.527344 C 36.640625 99.285156 36.546875 99.191406 35.285156 99.078125 C 36.546875 98.964844 36.640625 98.871094 36.757812 97.628906 C 36.875 98.871094 36.96875 98.964844 38.230469 99.078125 " fill-opacity="1" fill-rule="nonzero"/></g><path fill="rgb(93.728638%, 58.039856%, 79.219055%)" d="M 37.691406 86.027344 C 36.429688 86.140625 36.335938 86.234375 36.21875 87.476562 C 36.101562 86.234375 36.007812 86.140625 34.75 86.027344 C 36.007812 85.910156 36.101562 85.820312 36.21875 84.578125 C 36.335938 85.820312 36.429688 85.910156 37.691406 86.027344 " fill-opacity="1" fill-rule="nonzero"/><g clip-path="url(#id12)"><path fill="rgb(0%, 0%, 0%)" d="M 110.460938 81.335938 C 109.976562 79.886719 108.714844 78.875 107.082031 78.632812 C 106.3125 78.519531 105.433594 78.566406 104.390625 78.78125 C 102.574219 79.152344 101.222656 79.296875 100.238281 79.324219 C 103.953125 73.097656 106.976562 66 108.714844 59.316406 C 111.527344 48.511719 110.023438 43.589844 108.265625 41.363281 C 103.621094 35.46875 96.839844 32.304688 88.664062 32.207031 C 84.300781 32.152344 80.46875 33.007812 78.472656 33.625 C 76.613281 33.296875 74.613281 33.117188 72.515625 33.082031 C 68.582031 33.019531 65.105469 33.871094 62.136719 35.621094 C 60.488281 35.070312 57.851562 34.289062 54.804688 33.792969 C 47.636719 32.625 41.859375 33.535156 37.632812 36.5 C 32.515625 40.085938 30.144531 46.320312 30.582031 55.027344 C 30.722656 57.789062 32.28125 66.203125 34.734375 74.175781 C 36.144531 78.761719 37.644531 82.566406 39.199219 85.492188 C 41.40625 89.640625 43.765625 92.082031 46.414062 92.960938 C 47.898438 93.453125 50.597656 93.796875 53.433594 91.453125 C 53.792969 91.882812 54.273438 92.3125 54.910156 92.710938 C 55.71875 93.21875 56.707031 93.632812 57.695312 93.875 C 61.253906 94.757812 64.585938 94.539062 67.429688 93.300781 C 67.449219 93.804688 67.460938 94.28125 67.472656 94.699219 C 67.492188 95.371094 67.511719 96.027344 67.535156 96.644531 C 67.703125 100.808594 67.988281 104.046875 68.835938 106.316406 C 68.882812 106.441406 68.945312 106.628906 69.011719 106.828125 C 69.429688 108.113281 70.136719 110.261719 71.933594 111.945312 C 73.792969 113.6875 76.042969 114.21875 78.101562 114.21875 C 79.132812 114.21875 80.117188 114.085938 80.984375 113.902344 C 84.066406 113.246094 87.566406 112.246094 90.097656 108.667969 C 92.492188 105.285156 93.652344 100.191406 93.863281 92.160156 C 93.890625 91.933594 93.917969 91.71875 93.941406 91.511719 C 93.957031 91.375 93.972656 91.230469 93.992188 91.085938 L 94.554688 91.136719 L 94.699219 91.144531 C 97.839844 91.289062 101.675781 90.628906 104.03125 89.542969 C 105.898438 88.683594 111.863281 85.554688 110.460938 81.335938 " fill-opacity="1" fill-rule="nonzero"/></g><path fill="rgb(19.999695%, 40.388489%, 56.858826%)" d="M 105.09375 82.152344 C 95.761719 84.066406 95.117188 80.929688 95.117188 80.929688 C 104.972656 66.414062 109.089844 47.992188 105.535156 43.484375 C 95.839844 31.183594 79.050781 37 78.773438 37.152344 L 78.679688 37.167969 C 76.839844 36.789062 74.773438 36.5625 72.457031 36.523438 C 68.230469 36.457031 65.03125 37.625 62.601562 39.453125 C 62.601562 39.453125 32.65625 27.207031 34.046875 54.855469 C 34.34375 60.734375 42.539062 99.359375 52.316406 87.691406 C 55.890625 83.429688 59.339844 79.820312 59.339844 79.820312 C 61.054688 80.953125 63.109375 81.527344 65.261719 81.320312 L 65.425781 81.179688 C 65.375 81.707031 65.398438 82.230469 65.496094 82.84375 C 62.976562 85.632812 63.714844 86.125 58.683594 87.152344 C 53.585938 88.195312 56.582031 90.050781 58.535156 90.535156 C 60.902344 91.125 66.382812 91.957031 70.085938 86.8125 L 69.9375 87.398438 C 70.925781 88.183594 71.617188 92.5 71.5 96.417969 C 71.386719 100.332031 71.308594 103.019531 72.085938 105.121094 C 72.863281 107.21875 73.640625 111.941406 80.257812 110.535156 C 85.785156 109.359375 88.652344 106.308594 89.050781 101.222656 C 89.335938 97.609375 89.976562 98.144531 90.015625 94.914062 L 90.527344 93.378906 C 91.121094 88.480469 90.621094 86.898438 94.027344 87.632812 L 94.859375 87.707031 C 97.363281 87.820312 100.648438 87.304688 102.574219 86.417969 C 106.722656 84.503906 109.183594 81.316406 105.089844 82.152344 L 105.09375 82.152344 " fill-opacity="1" fill-rule="nonzero"/><path fill="rgb(100%, 100%, 100%)" d="M 64.355469 57.484375 C 63.511719 57.367188 62.75 57.476562 62.363281 57.765625 C 62.148438 57.929688 62.082031 58.117188 62.0625 58.246094 C 62.015625 58.589844 62.257812 58.972656 62.40625 59.167969 C 62.828125 59.722656 63.445312 60.105469 64.054688 60.191406 C 64.148438 60.203125 64.234375 60.207031 64.320312 60.207031 C 65.339844 60.207031 66.265625 59.421875 66.347656 58.839844 C 66.449219 58.113281 65.382812 57.628906 64.355469 57.484375 " fill-opacity="1" fill-rule="nonzero"/><path fill="rgb(100%, 100%, 100%)" d="M 92.210938 57.507812 C 92.128906 56.9375 91.109375 56.773438 90.136719 56.910156 C 89.171875 57.042969 88.230469 57.476562 88.308594 58.046875 C 88.371094 58.492188 89.179688 59.25 90.136719 59.25 C 90.21875 59.25 90.300781 59.246094 90.382812 59.234375 C 91.019531 59.148438 91.492188 58.746094 91.714844 58.511719 C 92.050781 58.160156 92.246094 57.765625 92.210938 57.507812 " fill-opacity="1" fill-rule="nonzero"/><path fill="rgb(100%, 100%, 100%)" d="M 108.195312 81.9375 C 107.84375 80.871094 106.695312 80.523438 104.792969 80.917969 C 99.144531 82.074219 97.121094 81.273438 96.453125 80.785156 C 100.847656 74.144531 104.460938 66.117188 106.410156 58.625 C 107.332031 55.078125 107.84375 51.785156 107.882812 49.097656 C 107.929688 46.152344 107.425781 43.984375 106.378906 42.660156 C 102.175781 37.328125 96.003906 34.464844 88.53125 34.386719 C 83.394531 34.328125 79.054688 35.632812 78.214844 36 C 76.445312 35.5625 74.511719 35.296875 72.410156 35.261719 C 68.550781 35.199219 65.21875 36.117188 62.460938 37.984375 C 61.261719 37.539062 58.164062 36.484375 54.375 35.878906 C 47.824219 34.832031 42.621094 35.625 38.90625 38.238281 C 34.476562 41.355469 32.429688 46.925781 32.824219 54.796875 C 32.960938 57.445312 34.480469 65.589844 36.878906 73.390625 C 40.035156 83.660156 43.46875 89.472656 47.078125 90.667969 C 47.5 90.808594 47.988281 90.90625 48.527344 90.90625 C 49.84375 90.90625 51.457031 90.316406 53.140625 88.3125 C 55.929688 84.980469 58.535156 82.183594 59.496094 81.167969 C 60.917969 81.925781 62.476562 82.351562 64.070312 82.390625 C 64.074219 82.433594 64.078125 82.472656 64.082031 82.515625 C 63.761719 82.890625 63.5 83.222656 63.273438 83.503906 C 62.167969 84.898438 61.941406 85.1875 58.382812 85.914062 C 57.371094 86.121094 54.683594 86.671875 54.644531 88.542969 C 54.601562 90.585938 57.820312 91.441406 58.1875 91.53125 C 59.464844 91.851562 60.699219 92.007812 61.871094 92.007812 C 64.730469 92.007812 67.242188 91.078125 69.253906 89.273438 C 69.1875 96.558594 69.496094 103.738281 70.375 105.921875 C 71.097656 107.714844 72.859375 112.089844 78.429688 112.089844 C 79.246094 112.089844 80.148438 111.996094 81.136719 111.78125 C 86.945312 110.546875 89.46875 108 90.449219 102.375 C 90.96875 99.371094 91.867188 92.195312 92.289062 88.347656 C 93.179688 88.625 94.324219 88.75 95.5625 88.75 C 98.144531 88.75 101.128906 88.207031 102.996094 87.34375 C 105.097656 86.378906 108.882812 84 108.195312 81.9375 Z M 94.359375 55.933594 C 94.335938 57.070312 94.179688 58.101562 94.011719 59.175781 C 93.835938 60.335938 93.648438 61.53125 93.601562 62.984375 C 93.554688 64.398438 93.734375 65.867188 93.90625 67.292969 C 94.25 70.164062 94.609375 73.121094 93.230469 76.039062 C 93.011719 75.660156 92.804688 75.246094 92.617188 74.789062 C 92.445312 74.375 92.070312 73.710938 91.554688 72.792969 C 89.546875 69.21875 84.847656 60.847656 87.253906 57.433594 C 87.96875 56.417969 89.789062 55.371094 94.359375 55.933594 Z M 88.820312 36.6875 C 95.515625 36.835938 100.808594 39.320312 104.558594 44.074219 C 107.433594 47.722656 104.269531 64.324219 95.101562 78.640625 C 95.011719 78.527344 94.921875 78.410156 94.824219 78.292969 C 94.785156 78.246094 94.746094 78.195312 94.707031 78.148438 C 97.074219 74.265625 96.613281 70.425781 96.199219 67.015625 C 96.03125 65.617188 95.871094 64.296875 95.910156 63.058594 C 95.957031 61.742188 96.132812 60.617188 96.296875 59.527344 C 96.507812 58.183594 96.71875 56.792969 96.660156 55.152344 C 96.707031 54.980469 96.722656 54.777344 96.699219 54.539062 C 96.550781 52.964844 94.742188 48.261719 91.058594 44.007812 C 89.042969 41.679688 86.105469 39.070312 82.09375 37.316406 C 83.816406 36.960938 86.179688 36.628906 88.820312 36.6875 Z M 51.359375 86.84375 C 49.507812 89.050781 48.230469 88.628906 47.808594 88.492188 C 45.070312 87.582031 41.890625 81.835938 39.089844 72.722656 C 36.664062 64.832031 35.246094 56.90625 35.132812 54.679688 C 34.78125 47.648438 36.496094 42.746094 40.238281 40.113281 C 46.328125 35.828125 56.339844 38.390625 60.359375 39.691406 C 60.304688 39.75 60.242188 39.804688 60.1875 39.859375 C 53.585938 46.476562 53.742188 57.785156 53.757812 58.476562 C 53.757812 58.742188 53.78125 59.121094 53.8125 59.636719 C 53.925781 61.539062 54.136719 65.078125 53.570312 69.089844 C 53.046875 72.8125 54.203125 76.457031 56.742188 79.085938 C 57.007812 79.363281 57.28125 79.617188 57.566406 79.855469 C 56.433594 81.058594 53.976562 83.71875 51.359375 86.84375 Z M 58.414062 77.5 C 56.367188 75.382812 55.433594 72.429688 55.859375 69.40625 C 56.457031 65.171875 56.238281 61.484375 56.121094 59.503906 C 56.101562 59.226562 56.089844 58.984375 56.078125 58.789062 C 57.042969 57.941406 61.511719 55.566406 64.699219 56.289062 C 66.152344 56.621094 67.039062 57.605469 67.410156 59.292969 C 69.3125 68.046875 67.660156 71.695312 66.332031 74.628906 C 66.054688 75.230469 65.800781 75.804688 65.578125 76.394531 L 65.40625 76.851562 C 64.96875 78.007812 64.570312 79.078125 64.316406 80.097656 C 62.140625 80.089844 60.023438 79.167969 58.414062 77.5 Z M 58.746094 89.308594 C 58.113281 89.148438 57.539062 88.875 57.203125 88.648438 C 57.484375 88.515625 57.984375 88.339844 58.847656 88.160156 C 63.035156 87.308594 63.679688 86.703125 65.089844 84.925781 C 65.417969 84.515625 65.78125 84.054688 66.289062 83.492188 L 66.289062 83.488281 C 67.046875 82.648438 67.394531 82.792969 68.019531 83.050781 C 68.527344 83.257812 69.023438 83.890625 69.226562 84.589844 C 69.320312 84.914062 69.425781 85.542969 69.078125 86.027344 C 66.128906 90.125 61.832031 90.074219 58.746094 89.308594 Z M 80.652344 109.539062 C 75.53125 110.625 73.714844 108.035156 72.523438 105.070312 C 71.75 103.15625 71.371094 94.523438 71.640625 84.992188 C 71.644531 84.867188 71.625 84.746094 71.589844 84.628906 C 71.558594 84.40625 71.511719 84.183594 71.449219 83.957031 C 71.050781 82.570312 70.074219 81.410156 68.90625 80.929688 C 68.441406 80.738281 67.585938 80.386719 66.566406 80.648438 C 66.785156 79.753906 67.160156 78.746094 67.570312 77.65625 L 67.746094 77.195312 C 67.9375 76.675781 68.179688 76.136719 68.441406 75.570312 C 69.832031 72.503906 71.734375 68.300781 69.667969 58.808594 C 68.894531 55.253906 66.308594 53.519531 62.386719 53.921875 C 60.035156 54.164062 57.886719 55.105469 56.8125 55.644531 C 56.582031 55.757812 56.371094 55.871094 56.175781 55.980469 C 56.472656 52.398438 57.605469 45.703125 61.835938 41.46875 C 64.5 38.800781 68.046875 37.484375 72.371094 37.554688 C 80.886719 37.695312 86.347656 42.03125 89.425781 45.648438 C 92.085938 48.761719 93.523438 51.902344 94.097656 53.59375 C 89.78125 53.160156 86.84375 54.003906 85.359375 56.117188 C 82.121094 60.710938 87.128906 69.628906 89.535156 73.910156 C 89.976562 74.695312 90.355469 75.375 90.480469 75.664062 C 91.261719 77.550781 92.277344 78.808594 93.015625 79.730469 C 93.242188 80.011719 93.464844 80.285156 93.632812 80.519531 C 92.324219 80.894531 89.976562 81.761719 90.191406 86.082031 C 90.019531 88.25 88.789062 98.398438 88.167969 101.984375 C 87.34375 106.722656 85.585938 108.488281 80.652344 109.539062 Z M 102.019531 85.261719 C 100.683594 85.878906 98.445312 86.339844 96.320312 86.4375 C 93.972656 86.546875 92.777344 86.175781 92.5 85.949219 C 92.367188 83.257812 93.375 82.976562 94.445312 82.679688 C 94.613281 82.632812 94.777344 82.585938 94.933594 82.53125 C 95.03125 82.609375 95.140625 82.6875 95.257812 82.765625 C 97.144531 84.003906 100.511719 84.136719 105.257812 83.160156 C 105.277344 83.160156 105.296875 83.15625 105.3125 83.152344 C 104.671875 83.746094 103.578125 84.546875 102.019531 85.261719 Z M 102.019531 85.261719 " fill-opacity="1" fill-rule="nonzero"/></svg>