<svg xmlns="http://www.w3.org/2000/svg" xmlns:xlink="http://www.w3.org/1999/xlink" width="189" zoomAndPan="magnify" viewBox="0 0 141.75 141.750002" height="189" preserveAspectRatio="xMidYMid meet" version="1.0"><defs><clipPath id="id1"><path d="M 0 19.3125 L 141.5 19.3125 L 141.5 122.0625 L 0 122.0625 Z M 0 19.3125 " clip-rule="nonzero"/></clipPath><clipPath id="id2"><path d="M 21 37 L 53.347656 37 L 53.347656 70.925781 L 21 70.925781 Z M 21 37 " clip-rule="nonzero"/></clipPath><clipPath id="id3"><path d="M 15.847656 65 L 22 65 L 22 70.925781 L 15.847656 70.925781 Z M 15.847656 65 " clip-rule="nonzero"/></clipPath><clipPath id="id4"><path d="M 47 26.675781 L 53.347656 26.675781 L 53.347656 34 L 47 34 Z M 47 26.675781 " clip-rule="nonzero"/></clipPath><clipPath id="id5"><path d="M 108.640625 42 L 126 42 L 126 62.1875 L 108.640625 62.1875 Z M 108.640625 42 " clip-rule="nonzero"/></clipPath><clipPath id="id6"><path d="M 108.640625 44 L 114 44 L 114 50 L 108.640625 50 Z M 108.640625 44 " clip-rule="nonzero"/></clipPath><clipPath id="id7"><path d="M 103.492188 72.777344 L 124 72.777344 L 124 96 L 103.492188 96 Z M 103.492188 72.777344 " clip-rule="nonzero"/></clipPath><clipPath id="id8"><path d="M 121.179688 79 L 128.191406 79 L 128.191406 86 L 121.179688 86 Z M 121.179688 79 " clip-rule="nonzero"/></clipPath><clipPath id="id9"><path d="M 26 83.46875 L 41.480469 83.46875 L 41.480469 97 L 26 97 Z M 26 83.46875 " clip-rule="nonzero"/></clipPath><clipPath id="id10"><path d="M 24.230469 86 L 32 86 L 32 95 L 24.230469 95 Z M 24.230469 86 " clip-rule="nonzero"/></clipPath><clipPath id="id11"><path d="M 35.195312 97.621094 L 38.324219 97.621094 L 38.324219 100.527344 L 35.195312 100.527344 Z M 35.195312 97.621094 " clip-rule="nonzero"/></clipPath><clipPath id="id12"><path d="M 31.867188 35 L 109.867188 35 L 109.867188 106 L 31.867188 106 Z M 31.867188 35 " clip-rule="nonzero"/></clipPath></defs><g clip-path="url(#id1)"><path fill="rgb(35.289001%, 20.779419%, 52.938843%)" d="M 6.152344 87.003906 C 6.152344 86.710938 6.203125 86.464844 6.203125 86.167969 C 6.253906 85.429688 6.253906 85.476562 7.09375 85.132812 C 7.292969 85.082031 7.339844 84.738281 7.488281 84.589844 C 8.28125 83.703125 9.074219 82.816406 10.113281 81.632812 L 9.371094 79.167969 L 3.730469 77.6875 L 5.855469 76.308594 C 5.164062 75.417969 4.371094 74.777344 5.660156 73.742188 C 6.203125 73.300781 6.402344 71.96875 5.855469 70.6875 L 4.570312 73.988281 L 0.808594 71.917969 L 2.046875 71.375 L 2.640625 72.117188 L 3.433594 71.179688 L 4.175781 71.769531 C 3.828125 70.488281 3.183594 70.488281 2.097656 71.425781 C 1.898438 71.179688 1.699219 70.933594 1.601562 70.6875 C 1.253906 70.191406 1.007812 69.699219 0.808594 69.15625 C 0.710938 68.566406 0.660156 68.023438 0.710938 67.433594 L 1.007812 67.433594 L 1.75 68.515625 L 2.394531 67.234375 L 0.5625 66.398438 L 1.355469 66.101562 C 0.316406 65.359375 0.117188 63.929688 0.859375 62.945312 C 1.007812 62.75 1.15625 62.601562 1.304688 62.5 C 1.699219 62.207031 1.996094 61.761719 2.34375 61.417969 C 2.691406 61.070312 2.988281 60.53125 3.730469 61.023438 C 3.878906 61.121094 4.570312 60.875 4.71875 60.578125 C 5.363281 59.445312 6.449219 59.199219 7.539062 59.097656 C 8.28125 59.148438 8.925781 58.65625 9.074219 57.917969 C 9.371094 56.832031 9.714844 55.746094 10.011719 54.664062 C 11.25 49.929688 14.070312 46.082031 17.386719 42.535156 C 19.5625 40.167969 21.988281 38.046875 24.3125 35.828125 C 22.878906 34.101562 23.523438 32.328125 25.945312 31.882812 C 25.898438 31.636719 25.898438 31.339844 25.898438 31.390625 C 26.738281 31.191406 27.429688 31.046875 28.074219 30.847656 C 30.101562 30.257812 32.082031 29.417969 34.160156 29.074219 C 37.625 28.53125 40.988281 27.25 43.90625 25.324219 C 46.777344 23.453125 50.042969 22.761719 53.210938 21.726562 C 56.773438 20.542969 60.535156 20.347656 64.195312 20.050781 C 68.203125 19.65625 72.160156 19.410156 76.070312 19.359375 C 79.039062 19.3125 82.058594 19.707031 85.074219 19.902344 C 86.855469 20 88.640625 20.199219 90.421875 20.347656 C 90.617188 20.347656 90.867188 20.148438 91.0625 20.148438 C 91.707031 20.101562 92.398438 20.101562 93.042969 20.148438 C 93.882812 20.246094 94.675781 20.542969 95.515625 20.742188 C 95.714844 20.789062 96.011719 20.839844 96.0625 20.742188 C 96.851562 19.605469 97.445312 20.445312 98.089844 20.9375 C 98.386719 21.183594 98.929688 21.035156 99.277344 21.234375 C 99.921875 21.480469 100.515625 21.875 101.007812 22.417969 C 101.601562 23.207031 102.34375 23.796875 103.234375 24.191406 C 106.996094 25.96875 110.609375 27.988281 114.320312 29.960938 C 115.257812 30.453125 116 31.046875 117.238281 30.75 C 118.375 30.601562 119.5625 30.652344 120.652344 30.945312 C 121.496094 31.09375 121.941406 30.847656 122.1875 30.058594 C 122.582031 30.503906 123.078125 30.898438 123.621094 31.191406 C 123.871094 31.292969 124.363281 30.898438 124.710938 30.699219 C 124.957031 30.996094 125.207031 31.539062 125.402344 31.539062 C 127.183594 31.539062 128.175781 32.722656 128.867188 33.707031 C 128.769531 34.25 128.769531 34.84375 128.816406 35.382812 C 129.015625 36.273438 129.3125 37.109375 129.609375 37.949219 C 129.609375 38.046875 129.660156 38.097656 129.660156 38.195312 C 129.015625 39.476562 130.152344 40.5625 130.054688 41.746094 C 129.90625 42.238281 129.707031 42.679688 129.460938 43.125 C 129.558594 43.421875 129.957031 43.914062 129.957031 44.40625 C 129.90625 45.589844 130.597656 45.640625 131.09375 45.640625 C 132.230469 47.90625 133.074219 50.226562 134.507812 52.148438 C 135.449219 53.429688 135.894531 54.859375 136.636719 56.140625 C 137.921875 58.410156 139.058594 60.777344 140.050781 63.191406 C 140.742188 64.769531 140.988281 66.542969 141.386719 68.222656 C 141.484375 68.566406 141.535156 68.960938 141.632812 69.402344 C 141.039062 69.699219 140.792969 70.046875 141.136719 70.933594 C 141.484375 71.96875 141.535156 73.101562 141.335938 74.1875 C 141.039062 76.109375 140.445312 77.984375 140 79.90625 C 139.949219 80.25 139.902344 80.597656 139.902344 80.941406 C 139.949219 81.238281 139.902344 81.582031 139.800781 81.878906 C 138.761719 83.851562 137.625 85.773438 136.585938 87.695312 C 136.339844 88.1875 136.089844 88.632812 135.792969 89.125 C 134.507812 90.753906 133.222656 92.378906 131.933594 94.007812 C 131.042969 95.140625 130.054688 96.273438 129.066406 97.308594 C 127.925781 98.394531 126.789062 99.382812 125.550781 100.316406 C 122.878906 102.386719 120.355469 104.65625 117.484375 106.480469 C 114.417969 108.355469 111.25 110.03125 107.9375 111.410156 C 103.285156 113.382812 98.535156 115.207031 93.734375 116.734375 C 91.707031 117.378906 89.777344 118.3125 87.550781 118.460938 C 85.519531 118.609375 83.589844 119.546875 81.613281 120.089844 C 81.214844 120.1875 80.769531 120.679688 80.472656 119.941406 C 80.425781 119.84375 80.128906 119.84375 79.929688 119.890625 C 77.851562 120.335938 75.722656 120.730469 73.644531 121.222656 C 73.199219 121.320312 72.804688 121.765625 72.410156 122.0625 C 72.160156 121.222656 71.566406 120.976562 70.628906 120.976562 C 67.363281 121.074219 64.097656 121.222656 60.832031 120.976562 C 57.316406 120.632812 53.804688 120.089844 50.339844 119.398438 C 48.609375 119.101562 46.976562 118.460938 45.292969 117.96875 C 44.945312 117.820312 44.601562 117.773438 44.253906 117.820312 C 42.917969 118.265625 42.125 117.378906 41.136719 116.6875 C 39.949219 115.847656 38.5625 115.257812 37.277344 114.46875 C 35.199219 113.1875 33.023438 111.953125 31.042969 110.523438 C 29.757812 109.585938 28.421875 109.980469 27.183594 110.03125 C 25.648438 110.082031 24.214844 110.128906 22.878906 109.191406 C 22.679688 109.042969 22.632812 108.648438 22.484375 108.402344 C 22.285156 108.058594 22.085938 107.714844 21.886719 107.367188 L 23.175781 105.148438 L 22.929688 104.953125 L 21.441406 105.644531 C 21.492188 104.753906 21.738281 103.964844 21.492188 103.472656 C 20.996094 102.488281 21.144531 100.957031 19.511719 100.761719 C 19.363281 100.761719 19.316406 100.171875 19.214844 99.875 C 18.175781 100.316406 17.1875 100.8125 16.148438 101.15625 C 15.652344 101.207031 15.109375 101.207031 14.613281 101.058594 C 14.269531 101.058594 13.921875 101.007812 13.574219 100.910156 C 12.636719 100.5625 11.695312 100.171875 10.753906 99.777344 C 10.65625 99.726562 10.605469 99.578125 10.605469 99.480469 C 11.152344 97.902344 9.816406 97.113281 9.519531 96.027344 C 9.566406 95.289062 9.816406 94.449219 9.566406 93.859375 C 9.171875 93.019531 8.28125 92.625 7.390625 92.871094 L 8.527344 92.183594 L 7.886719 91.046875 C 8.035156 90.800781 8.183594 90.605469 8.28125 90.359375 C 8.675781 89.273438 8.183594 87.546875 7.242188 86.90625 C 6.945312 86.808594 6.5 86.957031 6.152344 87.003906 Z M 65.183594 117.722656 C 65.234375 117.476562 65.285156 117.230469 65.285156 116.933594 C 65.234375 116.6875 64.988281 116.488281 64.886719 116.242188 C 64.640625 115.503906 62.808594 114.371094 62.414062 114.863281 C 61.472656 115.949219 60.535156 115.652344 59.445312 115.40625 C 59.246094 115.40625 59.050781 115.40625 58.851562 115.503906 C 57.417969 115.898438 55.980469 116.292969 54.597656 116.734375 C 54.941406 117.671875 61.96875 118.511719 65.183594 117.722656 Z M 109.421875 31.242188 L 109.570312 30.601562 C 107.6875 29.8125 105.859375 28.976562 103.929688 28.234375 C 103.53125 28.085938 102.988281 28.234375 102.246094 28.234375 C 102.742188 28.726562 103.085938 28.976562 103.039062 29.121094 C 102.542969 30.800781 103.78125 30.75 104.769531 30.847656 C 105.660156 30.996094 106.550781 31.046875 107.390625 31.09375 C 108.132812 31.144531 108.777344 31.191406 109.421875 31.242188 Z M 18.425781 45.886719 L 18.722656 46.28125 C 19.167969 46.035156 19.613281 45.789062 20.058594 45.539062 C 21.148438 44.898438 22.1875 44.160156 23.273438 43.570312 C 24.808594 42.78125 25.203125 41.84375 24.5625 40.019531 Z M 39.703125 112.347656 L 40.046875 112.152344 C 40 111.855469 40 111.363281 39.898438 111.363281 C 39.007812 111.164062 38.910156 110.425781 38.8125 109.832031 L 35.546875 109.539062 L 35.347656 109.882812 Z M 14.121094 55.351562 L 13.773438 55.203125 L 12.734375 57.324219 C 14.121094 57.667969 14.269531 57.421875 14.121094 55.351562 Z M 26.984375 39.773438 L 26.738281 39.625 C 26.492188 40.019531 26.242188 40.414062 26.09375 40.855469 C 26.046875 40.957031 26.589844 41.203125 26.984375 41.496094 Z M 6.152344 87.003906 C 5.90625 87.105469 5.558594 87.105469 5.460938 87.300781 C 5.3125 87.648438 5.164062 87.992188 5.113281 88.335938 L 5.90625 90.359375 L 6.945312 90.160156 L 5.757812 89.078125 L 6.597656 88.4375 C 6.351562 88.1875 6.152344 87.894531 5.957031 87.597656 C 5.90625 87.449219 6.054688 87.203125 6.152344 87.003906 C 6.152344 86.957031 6.152344 87.003906 6.152344 87.003906 Z M 6.152344 87.003906 " fill-opacity="1" fill-rule="nonzero"/></g><g clip-path="url(#id2)"><path fill="rgb(93.728638%, 58.039856%, 79.219055%)" d="M 104.132812 78.59375 C 68.636719 81.875 65.984375 84.535156 62.71875 120.183594 C 59.449219 84.535156 56.800781 81.875 21.300781 78.59375 C 56.800781 75.3125 59.449219 72.652344 62.71875 37.003906 C 65.984375 72.652344 68.636719 75.3125 104.132812 78.59375 " fill-opacity="1" fill-rule="nonzero"/></g><path fill="rgb(93.728638%, 58.039856%, 79.219055%)" d="M 43.832031 50.546875 C 35.761719 51.292969 35.160156 51.898438 34.414062 60.003906 C 33.671875 51.898438 33.070312 51.292969 25 50.546875 C 33.070312 49.800781 33.671875 49.195312 34.414062 41.089844 C 35.160156 49.195312 35.761719 49.800781 43.832031 50.546875 " fill-opacity="1" fill-rule="nonzero"/><g clip-path="url(#id3)"><path fill="rgb(93.728638%, 58.039856%, 79.219055%)" d="M 21.300781 68.425781 C 18.546875 68.683594 18.339844 68.886719 18.085938 71.65625 C 17.832031 68.886719 17.625 68.683594 14.871094 68.425781 C 17.625 68.171875 17.832031 67.964844 18.085938 65.195312 C 18.339844 67.964844 18.546875 68.171875 21.300781 68.425781 " fill-opacity="1" fill-rule="nonzero"/></g><g clip-path="url(#id4)"><path fill="rgb(93.728638%, 58.039856%, 79.219055%)" d="M 53.945312 29.910156 C 51.1875 30.164062 50.980469 30.371094 50.726562 33.140625 C 50.472656 30.371094 50.269531 30.164062 47.511719 29.910156 C 50.269531 29.65625 50.472656 29.449219 50.726562 26.679688 C 50.980469 29.449219 51.1875 29.65625 53.945312 29.910156 " fill-opacity="1" fill-rule="nonzero"/></g><g clip-path="url(#id5)"><path fill="rgb(93.728638%, 58.039856%, 79.219055%)" d="M 125.566406 67.621094 C 103.828125 69.625 102.203125 71.25 100.203125 93.007812 C 98.203125 71.25 96.582031 69.625 74.839844 67.621094 C 96.582031 65.621094 98.203125 63.996094 100.203125 42.238281 C 102.203125 63.996094 103.828125 65.621094 125.566406 67.621094 " fill-opacity="1" fill-rule="nonzero"/></g><path fill="rgb(93.728638%, 58.039856%, 79.219055%)" d="M 123.550781 42.761719 C 121.863281 42.917969 121.738281 43.042969 121.582031 44.734375 C 121.425781 43.042969 121.300781 42.917969 119.609375 42.761719 C 121.300781 42.605469 121.425781 42.480469 121.582031 40.789062 C 121.738281 42.480469 121.863281 42.605469 123.550781 42.761719 " fill-opacity="1" fill-rule="nonzero"/><g clip-path="url(#id6)"><path fill="rgb(93.728638%, 58.039856%, 79.219055%)" d="M 113.519531 46.925781 C 111.296875 47.132812 111.132812 47.296875 110.925781 49.523438 C 110.722656 47.296875 110.554688 47.132812 108.332031 46.925781 C 110.554688 46.722656 110.722656 46.554688 110.925781 44.332031 C 111.132812 46.554688 111.296875 46.722656 113.519531 46.925781 " fill-opacity="1" fill-rule="nonzero"/></g><path fill="rgb(93.728638%, 58.039856%, 79.219055%)" d="M 124.902344 56.816406 C 121.785156 57.105469 121.550781 57.335938 121.265625 60.457031 C 120.976562 57.335938 120.746094 57.105469 117.625 56.816406 C 120.746094 56.53125 120.976562 56.296875 121.265625 53.175781 C 121.550781 56.296875 121.785156 56.53125 124.902344 56.816406 " fill-opacity="1" fill-rule="nonzero"/><g clip-path="url(#id7)"><path fill="rgb(93.728638%, 58.039856%, 79.219055%)" d="M 123.375 69.066406 C 100.535156 71.164062 98.832031 72.867188 96.730469 95.675781 C 94.625 72.867188 92.921875 71.164062 70.082031 69.066406 C 92.921875 66.96875 94.625 65.265625 96.730469 42.457031 C 98.832031 65.265625 100.535156 66.96875 123.375 69.066406 " fill-opacity="1" fill-rule="nonzero"/></g><g clip-path="url(#id8)"><path fill="rgb(93.728638%, 58.039856%, 79.219055%)" d="M 128.195312 82.492188 C 125.222656 82.765625 125 82.984375 124.726562 85.953125 C 124.453125 82.984375 124.230469 82.765625 121.257812 82.492188 C 124.230469 82.21875 124.453125 81.996094 124.726562 79.027344 C 125 81.996094 125.222656 82.21875 128.195312 82.492188 " fill-opacity="1" fill-rule="nonzero"/></g><path fill="rgb(93.728638%, 58.039856%, 79.219055%)" d="M 112.132812 80.425781 C 110.359375 80.585938 110.226562 80.71875 110.0625 82.492188 C 109.902344 80.71875 109.769531 80.585938 107.996094 80.425781 C 109.769531 80.261719 109.902344 80.128906 110.0625 78.359375 C 110.226562 80.128906 110.359375 80.261719 112.132812 80.425781 " fill-opacity="1" fill-rule="nonzero"/><path fill="rgb(93.728638%, 58.039856%, 79.219055%)" d="M 118.359375 94.960938 C 115.160156 95.253906 114.921875 95.492188 114.625 98.6875 C 114.332031 95.492188 114.09375 95.253906 110.894531 94.960938 C 114.09375 94.667969 114.332031 94.429688 114.625 91.234375 C 114.921875 94.429688 115.160156 94.667969 118.359375 94.960938 " fill-opacity="1" fill-rule="nonzero"/><g clip-path="url(#id9)"><path fill="rgb(93.728638%, 58.039856%, 79.219055%)" d="M 64.617188 78.0625 C 48.378906 79.535156 47.167969 80.726562 45.671875 96.714844 C 44.179688 80.726562 42.96875 79.535156 26.730469 78.0625 C 42.96875 76.589844 44.179688 75.398438 45.671875 59.410156 C 47.167969 75.398438 48.378906 76.589844 64.617188 78.0625 " fill-opacity="1" fill-rule="nonzero"/></g><g clip-path="url(#id10)"><path fill="rgb(93.728638%, 58.039856%, 79.219055%)" d="M 31.789062 90.25 C 28.507812 90.546875 28.261719 90.789062 27.960938 94.015625 C 27.660156 90.789062 27.414062 90.546875 24.132812 90.25 C 27.414062 89.953125 27.660156 89.710938 27.960938 86.480469 C 28.261719 89.710938 28.507812 89.953125 31.789062 90.25 " fill-opacity="1" fill-rule="nonzero"/></g><g clip-path="url(#id11)"><path fill="rgb(93.728638%, 58.039856%, 79.219055%)" d="M 38.230469 99.078125 C 36.96875 99.191406 36.875 99.285156 36.757812 100.527344 C 36.640625 99.285156 36.546875 99.191406 35.285156 99.078125 C 36.546875 98.964844 36.640625 98.871094 36.757812 97.628906 C 36.875 98.871094 36.96875 98.964844 38.230469 99.078125 " fill-opacity="1" fill-rule="nonzero"/></g><path fill="rgb(93.728638%, 58.039856%, 79.219055%)" d="M 37.691406 86.027344 C 36.429688 86.140625 36.335938 86.234375 36.21875 87.476562 C 36.101562 86.234375 36.007812 86.140625 34.75 86.027344 C 36.007812 85.910156 36.101562 85.820312 36.21875 84.578125 C 36.335938 85.820312 36.429688 85.910156 37.691406 86.027344 " fill-opacity="1" fill-rule="nonzero"/><g clip-path="url(#id12)"><path fill="rgb(0%, 84.709167%, 100%)" d="M 95.945312 58.363281 C 95.140625 58.085938 94.304688 57.820312 93.441406 57.574219 C 93.582031 56.996094 93.714844 56.429688 93.828125 55.867188 C 95.722656 46.683594 94.488281 39.285156 90.25 36.851562 C 86.1875 34.515625 79.546875 36.949219 72.839844 42.773438 C 72.195312 43.332031 71.546875 43.925781 70.902344 44.546875 C 70.472656 44.136719 70.042969 43.738281 69.613281 43.359375 C 62.582031 37.132812 55.539062 34.507812 51.304688 36.953125 C 47.25 39.292969 46.046875 46.25 47.753906 54.953125 C 47.921875 55.792969 48.113281 56.652344 48.332031 57.527344 C 47.332031 57.808594 46.371094 58.109375 45.449219 58.429688 C 37.207031 61.296875 31.945312 65.785156 31.945312 70.445312 C 31.945312 75.257812 37.59375 80.085938 46.179688 83.011719 C 46.855469 83.242188 47.558594 83.460938 48.285156 83.667969 C 48.046875 84.609375 47.84375 85.535156 47.671875 86.4375 C 46.042969 94.992188 47.316406 101.78125 51.363281 104.109375 C 55.542969 106.511719 62.554688 104.042969 69.386719 98.085938 C 69.925781 97.617188 70.46875 97.117188 71.007812 96.59375 C 71.714844 97.269531 72.417969 97.910156 73.113281 98.507812 C 79.730469 104.1875 86.265625 106.480469 90.304688 104.148438 C 94.480469 101.734375 95.839844 94.4375 94.074219 85.566406 C 93.941406 84.886719 93.785156 84.195312 93.609375 83.492188 C 94.101562 83.34375 94.585938 83.191406 95.058594 83.039062 C 103.984375 80.085938 109.789062 75.324219 109.789062 70.445312 C 109.789062 65.769531 104.355469 61.25 95.945312 58.363281 Z M 94.011719 79.890625 C 93.585938 80.03125 93.148438 80.167969 92.703125 80.296875 C 91.71875 77.1875 90.390625 73.878906 88.761719 70.460938 C 90.316406 67.125 91.59375 63.859375 92.550781 60.769531 C 93.347656 61 94.117188 61.242188 94.863281 61.496094 C 102.066406 63.972656 106.460938 67.628906 106.460938 70.445312 C 106.460938 73.445312 101.71875 77.34375 94.011719 79.890625 Z M 90.8125 86.207031 C 91.59375 90.132812 91.703125 93.679688 91.1875 96.457031 C 90.726562 98.949219 89.792969 100.609375 88.640625 101.273438 C 86.183594 102.691406 80.941406 100.851562 75.285156 95.996094 C 74.632812 95.4375 73.980469 94.84375 73.328125 94.214844 C 75.519531 91.820312 77.710938 89.039062 79.851562 85.949219 C 83.613281 85.621094 87.167969 85.074219 90.394531 84.332031 C 90.550781 84.96875 90.691406 85.59375 90.8125 86.207031 Z M 58.484375 101.03125 C 56.085938 101.875 54.179688 101.898438 53.023438 101.234375 C 50.570312 99.824219 49.546875 94.371094 50.941406 87.058594 C 51.101562 86.21875 51.289062 85.359375 51.507812 84.480469 C 54.699219 85.183594 58.226562 85.6875 62 85.992188 C 64.152344 89.015625 66.410156 91.792969 68.679688 94.226562 C 68.1875 94.707031 67.691406 95.160156 67.199219 95.589844 C 64.179688 98.222656 61.152344 100.09375 58.484375 101.03125 Z M 47.257812 79.871094 C 43.460938 78.578125 40.324219 76.898438 38.175781 75.058594 C 36.246094 73.414062 35.273438 71.773438 35.273438 70.445312 C 35.273438 67.621094 39.496094 64.011719 46.546875 61.5625 C 47.402344 61.265625 48.296875 60.984375 49.226562 60.71875 C 50.199219 63.878906 51.476562 67.1875 53.019531 70.523438 C 51.457031 73.914062 50.160156 77.273438 49.175781 80.472656 C 48.515625 80.28125 47.875 80.082031 47.257812 79.871094 Z M 51.019531 54.316406 C 49.558594 46.859375 50.527344 41.234375 52.972656 39.824219 C 55.578125 38.320312 61.335938 40.464844 67.402344 45.839844 C 67.792969 46.183594 68.183594 46.542969 68.574219 46.914062 C 66.3125 49.335938 64.078125 52.09375 61.941406 55.097656 C 58.28125 55.4375 54.777344 55.980469 51.554688 56.707031 C 51.351562 55.894531 51.171875 55.097656 51.019531 54.316406 Z M 84.59375 62.585938 C 83.824219 61.257812 83.035156 59.964844 82.230469 58.703125 C 84.714844 59.015625 87.09375 59.433594 89.328125 59.941406 C 88.65625 62.085938 87.820312 64.328125 86.835938 66.628906 C 86.132812 65.289062 85.382812 63.941406 84.59375 62.585938 Z M 70.902344 49.285156 C 72.4375 50.941406 73.972656 52.792969 75.484375 54.800781 C 73.960938 54.726562 72.421875 54.691406 70.867188 54.691406 C 69.328125 54.691406 67.796875 54.726562 66.285156 54.796875 C 67.796875 52.808594 69.347656 50.960938 70.902344 49.285156 Z M 57.125 62.609375 C 56.355469 63.941406 55.621094 65.28125 54.925781 66.625 C 53.957031 64.332031 53.128906 62.082031 52.453125 59.90625 C 54.671875 59.410156 57.042969 59.003906 59.507812 58.699219 C 58.691406 59.96875 57.894531 61.273438 57.125 62.609375 Z M 59.582031 82.429688 C 57.03125 82.148438 54.625 81.761719 52.40625 81.28125 C 53.09375 79.066406 53.941406 76.765625 54.929688 74.425781 C 55.625 75.769531 56.363281 77.109375 57.136719 78.445312 C 57.925781 79.800781 58.742188 81.132812 59.582031 82.429688 Z M 70.996094 91.839844 C 69.417969 90.144531 67.847656 88.265625 66.3125 86.25 C 67.800781 86.308594 69.320312 86.339844 70.867188 86.339844 C 72.453125 86.339844 74.023438 86.300781 75.566406 86.234375 C 74.050781 88.289062 72.519531 90.167969 70.996094 91.839844 Z M 86.867188 74.308594 C 87.90625 76.671875 88.785156 78.960938 89.480469 81.136719 C 87.226562 81.648438 84.785156 82.0625 82.21875 82.371094 C 83.03125 81.09375 83.824219 79.773438 84.609375 78.417969 C 85.402344 77.046875 86.15625 75.675781 86.867188 74.308594 Z M 81.726562 76.761719 C 80.511719 78.867188 79.261719 80.875 77.992188 82.773438 C 75.6875 82.933594 73.300781 83.019531 70.867188 83.019531 C 68.441406 83.019531 66.085938 82.949219 63.816406 82.800781 C 62.5 80.878906 61.222656 78.867188 60.015625 76.78125 C 58.808594 74.703125 57.699219 72.609375 56.691406 70.523438 C 57.699219 68.4375 58.804688 66.339844 60.003906 64.265625 C 61.207031 62.1875 62.472656 60.183594 63.777344 58.273438 C 66.09375 58.097656 68.46875 58.007812 70.867188 58.007812 C 73.277344 58.007812 75.652344 58.097656 77.964844 58.273438 C 79.257812 60.171875 80.511719 62.167969 81.71875 64.25 C 82.9375 66.351562 84.058594 68.433594 85.074219 70.480469 C 84.0625 72.558594 82.945312 74.660156 81.726562 76.761719 Z M 88.589844 39.722656 C 91.195312 41.222656 92.210938 47.269531 90.570312 55.199219 C 90.46875 55.703125 90.347656 56.21875 90.222656 56.742188 C 86.992188 56 83.484375 55.445312 79.816406 55.101562 C 77.675781 52.0625 75.457031 49.300781 73.230469 46.910156 C 73.832031 46.335938 74.429688 45.789062 75.023438 45.273438 C 80.769531 40.285156 86.144531 38.316406 88.589844 39.722656 Z M 70.867188 63.511719 C 74.703125 63.511719 77.816406 66.613281 77.816406 70.445312 C 77.816406 74.273438 74.703125 77.378906 70.867188 77.378906 C 67.027344 77.378906 63.914062 74.273438 63.914062 70.445312 C 63.914062 66.613281 67.027344 63.511719 70.867188 63.511719 Z M 70.867188 63.511719 " fill-opacity="1" fill-rule="nonzero"/></g></svg>